<svg width="39" height="32" viewBox="0 0 39 32" fill="none" xmlns="http://www.w3.org/2000/svg">
<path d="M14.7896 29.5C7.2622 29.5 1.16 23.4558 1.16 16C1.16 8.54416 7.2622 2.5 14.7896 2.5H24.2104C31.7378 2.5 37.84 8.54416 37.84 16C37.84 23.4558 31.7378 29.5 24.2104 29.5H14.7896Z" fill="#0174B7"/>
<circle cx="15.3233" cy="16" r="12.3447" fill="white"/>
<path d="M7.9165 16C7.9165 12.775 9.97759 10.0315 12.8544 9.01466V22.9853C9.97759 21.9685 7.9165 19.225 7.9165 16Z" fill="#0174B7"/>
<path d="M22.7301 16C22.7301 19.225 20.669 21.9685 17.7922 22.9853V9.01466C20.669 10.0315 22.7301 12.775 22.7301 16Z" fill="#0174B7"/>
</svg>
