<svg width="49" height="25" viewBox="0 0 49 25" fill="none" xmlns="http://www.w3.org/2000/svg">
<path d="M48.6656 0.112507H0.665558V24.1125H11.5527H48.6656V12.9249V0.112507Z" fill="white"/>
<path d="M10.3008 24.1125H48.6656V10.4377C38.3969 18.7209 28.0497 20.4994 10.3008 24.1125Z" fill="#EC7E1D"/>
<path d="M2.48897 11.8549V5.45642H4.45772C5.02022 5.45642 5.52266 5.58386 5.96504 5.83874C6.41035 6.09069 6.75752 6.45105 7.00655 6.9198C7.25557 7.38562 7.38008 7.91589 7.38008 8.51062V8.80505C7.38008 9.39978 7.25703 9.92859 7.01094 10.3915C6.76778 10.8544 6.42354 11.2133 5.97823 11.4681C5.53291 11.723 5.03047 11.8519 4.4709 11.8549H2.48897ZM3.80733 6.52429V10.7958H4.44453C4.96016 10.7958 5.3542 10.6273 5.62666 10.2904C5.89912 9.95349 6.03828 9.47155 6.04414 8.8446V8.50622C6.04414 7.85583 5.90938 7.36364 5.63985 7.02966C5.37032 6.69275 4.97627 6.52429 4.45772 6.52429H3.80733Z" fill="black"/>
<path d="M9.74434 11.8549H8.42598V5.45642H9.74434V11.8549Z" fill="black"/>
<path d="M14.2883 10.1761C14.2883 9.92712 14.2004 9.73669 14.0246 9.60485C13.8488 9.47009 13.5324 9.32946 13.0754 9.18298C12.6184 9.03357 12.2565 8.88708 11.9899 8.74353C11.2634 8.35095 10.9001 7.82214 10.9001 7.1571C10.9001 6.8114 10.9968 6.50378 11.1901 6.23425C11.3864 5.96179 11.6662 5.74939 12.0295 5.59704C12.3957 5.4447 12.8059 5.36853 13.26 5.36853C13.717 5.36853 14.1242 5.45202 14.4816 5.61901C14.8391 5.78308 15.1159 6.01599 15.3122 6.31775C15.5114 6.6195 15.611 6.96228 15.611 7.34607H14.2927C14.2927 7.0531 14.2004 6.82605 14.0158 6.66491C13.8313 6.50085 13.572 6.41882 13.238 6.41882C12.9157 6.41882 12.6652 6.48767 12.4865 6.62536C12.3078 6.76013 12.2185 6.93884 12.2185 7.1615C12.2185 7.3695 12.3225 7.54382 12.5305 7.68444C12.7414 7.82507 13.0505 7.95691 13.4577 8.07995C14.2077 8.30554 14.7541 8.58532 15.0969 8.91931C15.4397 9.25329 15.611 9.66931 15.611 10.1674C15.611 10.7211 15.4016 11.1561 14.9826 11.4725C14.5637 11.786 13.9997 11.9427 13.2907 11.9427C12.7985 11.9427 12.3503 11.8534 11.946 11.6747C11.5417 11.493 11.2326 11.2455 11.0188 10.932C10.8078 10.6185 10.7023 10.2552 10.7023 9.84216H12.0251C12.0251 10.5482 12.447 10.9012 13.2907 10.9012C13.6042 10.9012 13.8488 10.8383 14.0246 10.7123C14.2004 10.5834 14.2883 10.4047 14.2883 10.1761Z" fill="black"/>
<path d="M21.5305 9.72351C21.4807 10.412 21.2258 10.954 20.7658 11.3495C20.3088 11.745 19.7053 11.9427 18.9553 11.9427C18.135 11.9427 17.489 11.6674 17.0173 11.1166C16.5485 10.5629 16.3142 9.80407 16.3142 8.84021V8.44909C16.3142 7.83386 16.4226 7.29187 16.6394 6.82312C16.8562 6.35437 17.1652 5.99548 17.5666 5.74646C17.9709 5.4945 18.4397 5.36853 18.9729 5.36853C19.7111 5.36853 20.3059 5.56628 20.757 5.96179C21.2082 6.3573 21.4689 6.91247 21.5393 7.62732H20.2209C20.1887 7.21423 20.073 6.9154 19.8737 6.73083C19.6774 6.54333 19.3772 6.44958 18.9729 6.44958C18.5334 6.44958 18.2038 6.60778 17.9841 6.92419C17.7673 7.23767 17.656 7.72546 17.6501 8.38757V8.87097C17.6501 9.56237 17.7541 10.0677 17.9621 10.3871C18.173 10.7064 18.5041 10.8661 18.9553 10.8661C19.3625 10.8661 19.6657 10.7738 19.8649 10.5892C20.0671 10.4017 20.1828 10.1132 20.2121 9.72351H21.5305Z" fill="black"/>
<path d="M30.8776 10.2684L32.3278 5.45642H33.7956L31.5676 11.8549H30.1921L27.9729 5.45642H29.4362L30.8776 10.2684Z" fill="black"/>
<path d="M38.2517 9.08191H35.7204V10.7958H38.6911V11.8549H34.4021V5.45642H38.6823V6.52429H35.7204V8.04919H38.2517V9.08191Z" fill="black"/>
<path d="M41.8332 9.51257H40.7829V11.8549H39.4646V5.45642H41.842C42.5979 5.45642 43.1809 5.62487 43.591 5.96179C44.0012 6.2987 44.2063 6.77478 44.2063 7.39001C44.2063 7.82653 44.111 8.19128 43.9206 8.48425C43.7331 8.77429 43.4475 9.00573 43.0637 9.17859L44.448 11.7933V11.8549H43.0329L41.8332 9.51257ZM40.7829 8.4447H41.8464C42.1774 8.4447 42.4338 8.3612 42.6154 8.19421C42.7971 8.02429 42.8879 7.79138 42.8879 7.49548C42.8879 7.19372 42.8015 6.95642 42.6286 6.78357C42.4587 6.61071 42.1965 6.52429 41.842 6.52429H40.7829V8.4447Z" fill="black"/>
<circle cx="25.1963" cy="8.74052" r="3.37199" fill="url(#paint0_linear)"/>
<defs>
<linearGradient id="paint0_linear" x1="25.1963" y1="5.36853" x2="27.2568" y2="12.1125" gradientUnits="userSpaceOnUse">
<stop stop-color="#E05D25"/>
<stop offset="1" stop-color="#EC8214" stop-opacity="0.97"/>
</linearGradient>
</defs>
</svg>
