<svg width="2099" height="800" viewBox="0 0 2099 800" fill="none" xmlns="http://www.w3.org/2000/svg">
<path d="M1022.5 469V508H859.9V298H1018.6V337H908.2V382.6H1005.7V420.4H908.2V469H1022.5ZM1161.08 511.6C1139.68 511.6 1120.28 507 1102.88 497.8C1085.68 488.4 1072.08 475.5 1062.08 459.1C1052.28 442.5 1047.38 423.8 1047.38 403C1047.38 382.2 1052.28 363.6 1062.08 347.2C1072.08 330.6 1085.68 317.7 1102.88 308.5C1120.28 299.1 1139.78 294.4 1161.38 294.4C1179.58 294.4 1195.98 297.6 1210.58 304C1225.38 310.4 1237.78 319.6 1247.78 331.6L1216.58 360.4C1202.38 344 1184.78 335.8 1163.78 335.8C1150.78 335.8 1139.18 338.7 1128.98 344.5C1118.78 350.1 1110.78 358 1104.98 368.2C1099.38 378.4 1096.58 390 1096.58 403C1096.58 416 1099.38 427.6 1104.98 437.8C1110.78 448 1118.78 456 1128.98 461.8C1139.18 467.4 1150.78 470.2 1163.78 470.2C1184.78 470.2 1202.38 461.9 1216.58 445.3L1247.78 474.1C1237.78 486.3 1225.38 495.6 1210.58 502C1195.78 508.4 1179.28 511.6 1161.08 511.6ZM1414.4 508L1373.9 449.5H1371.5H1329.2V508H1280.6V298H1371.5C1390.1 298 1406.2 301.1 1419.8 307.3C1433.6 313.5 1444.2 322.3 1451.6 333.7C1459 345.1 1462.7 358.6 1462.7 374.2C1462.7 389.8 1458.9 403.3 1451.3 414.7C1443.9 425.9 1433.3 434.5 1419.5 440.5L1466.6 508H1414.4ZM1413.5 374.2C1413.5 362.4 1409.7 353.4 1402.1 347.2C1394.5 340.8 1383.4 337.6 1368.8 337.6H1329.2V410.8H1368.8C1383.4 410.8 1394.5 407.6 1402.1 401.2C1409.7 394.8 1413.5 385.8 1413.5 374.2ZM1599.08 433.6V508H1550.48V433L1469.18 298H1520.78L1576.88 391.3L1632.98 298H1680.68L1599.08 433.6ZM1789.86 298C1808.46 298 1824.56 301.1 1838.16 307.3C1851.96 313.5 1862.56 322.3 1869.96 333.7C1877.36 345.1 1881.06 358.6 1881.06 374.2C1881.06 389.6 1877.36 403.1 1869.96 414.7C1862.56 426.1 1851.96 434.9 1838.16 441.1C1824.56 447.1 1808.46 450.1 1789.86 450.1H1747.56V508H1698.96V298H1789.86ZM1787.16 410.5C1801.76 410.5 1812.86 407.4 1820.46 401.2C1828.06 394.8 1831.86 385.8 1831.86 374.2C1831.86 362.4 1828.06 353.4 1820.46 347.2C1812.86 340.8 1801.76 337.6 1787.16 337.6H1747.56V410.5H1787.16ZM1953.4 337.6H1886.2V298H2069.2V337.6H2002V508H1953.4V337.6Z" fill="#5A5E84"/>
<path fill-rule="evenodd" clip-rule="evenodd" d="M175.936 468.355L174.807 466.402C175.182 467.053 175.559 467.704 175.936 468.355Z" fill="url(#paint0_linear)"/>
<path d="M330.719 755.267C352.821 771.206 375.775 786.048 399.501 799.713C399.81 799.891 400.19 799.891 400.498 799.713C424.224 786.048 447.179 771.206 469.281 755.267C471.499 753.667 473.709 752.056 475.911 750.434C495.288 736.157 513.994 721.03 531.972 705.108C535.975 701.563 539.943 697.978 543.874 694.354C559.709 679.756 574.948 664.528 589.552 648.711C594.407 643.452 599.192 638.128 603.906 632.74C617.006 617.766 629.552 602.299 641.512 586.372C646.164 580.176 650.729 573.91 655.202 567.577C655.593 567.023 655.33 566.249 654.684 566.046C634.023 559.53 613.968 551.662 594.624 542.546C589.697 540.224 584.816 537.821 579.982 535.339C560.699 525.436 542.178 514.272 524.529 501.956C520.307 499.01 516.134 495.998 512.013 492.921C490.87 477.136 471.08 459.655 452.849 440.683C452.419 440.235 451.689 440.282 451.319 440.781C441.899 453.504 431.948 465.814 421.498 477.679C414.767 485.322 407.828 492.78 400.691 500.045C400.308 500.435 400.308 501.06 400.693 501.449C419.187 520.143 438.999 537.545 459.98 553.504C468.592 560.055 477.4 566.363 486.396 572.418C499.483 581.227 512.966 589.501 526.811 597.206C527.38 597.523 527.501 598.289 527.056 598.764C509.361 617.656 490.649 635.594 471.008 652.495C469.987 653.374 468.963 654.25 467.937 655.123C446.527 673.338 424.029 690.326 400.554 705.977C400.218 706.201 399.781 706.201 399.446 705.977C375.97 690.326 353.472 673.338 332.063 655.123C331.036 654.25 330.013 653.374 328.992 652.495C309.027 635.316 290.022 617.064 272.068 597.828C271.161 596.856 270.256 595.881 269.354 594.904C251.866 575.96 235.393 556.076 220.018 535.339C239.301 525.436 257.822 514.272 275.471 501.956C279.693 499.01 283.866 495.998 287.987 492.921C309.449 476.898 329.516 459.128 347.974 439.824C360.702 426.513 372.665 412.472 383.793 397.772C389.277 390.527 394.558 383.123 399.628 375.566C399.853 375.23 399.853 374.791 399.629 374.454C387.827 356.757 377.182 338.233 367.799 318.987C363.911 311.014 360.241 302.916 356.794 294.703C356.465 293.918 355.368 293.872 354.973 294.625C350.128 303.868 344.929 312.898 339.394 321.697C328.769 338.586 316.903 354.625 303.924 369.688C285.947 390.551 265.834 409.541 243.922 426.323C241.234 428.381 238.52 430.407 235.778 432.398C217.005 446.037 196.991 458.088 175.936 468.355C175.559 467.704 175.182 467.053 174.807 466.402C161.96 444.109 150.285 421.064 139.865 397.348C139.483 396.48 139.104 395.61 138.725 394.74C128.505 371.221 119.517 347.05 111.842 322.306C111.437 321 111.036 319.693 110.638 318.384C103.01 293.274 96.7319 267.582 91.8885 241.391C91.661 240.161 91.4366 238.929 91.2155 237.697C86.2899 210.249 82.9384 182.259 81.2572 153.824C81.2335 153.422 81.4529 153.045 81.8141 152.868C106.996 140.517 133.009 129.586 159.748 120.181L160.061 120.07C185.926 110.986 212.469 103.329 239.595 97.194L240.177 97.0626C240.059 101.753 240 106.458 240 111.176C240 133.765 241.354 156.04 243.985 177.925C247.155 204.295 252.18 230.098 258.926 255.203C259.068 255.731 259.609 256.046 260.14 255.911C269.416 253.54 278.786 251.399 288.242 249.496C304.264 246.27 320.534 243.725 337.021 241.891C337.636 241.822 338.044 241.217 337.875 240.621C330.816 215.67 325.747 189.891 322.849 163.464C320.966 146.292 320 128.846 320 111.176C320 101.937 320.264 92.7595 320.786 83.6501C322.344 56.4189 326.199 29.7988 332.163 3.97838C332.316 3.317 331.781 2.69752 331.105 2.75487C321.354 3.58157 311.653 4.5821 302.006 5.75336C283.974 7.94245 266.128 10.7279 248.488 14.0892C239.508 15.8004 230.581 17.6609 221.709 19.6679C202.384 24.0402 183.325 29.1079 164.56 34.8433C157.619 36.9648 150.718 39.1776 143.859 41.4804C122.643 48.6029 101.826 56.5859 81.4498 65.3874C77.2786 67.1892 73.1258 69.0253 68.9918 70.8953C45.5377 81.505 22.6896 93.2073 0.513269 105.937C0.20477 106.114 0.0138068 106.442 0.0118772 106.798C0.00396441 108.256 0 109.716 0 111.176C0 137.982 1.33431 164.478 3.94055 190.602C4.14879 192.69 4.36516 194.775 4.5896 196.857C7.23531 221.406 11.0049 245.62 15.8461 269.448C16.8284 274.283 17.8548 279.102 18.925 283.905C23.694 305.308 29.3307 326.387 35.7965 347.103C37.8576 353.707 40.0028 360.274 42.2311 366.802C48.7313 385.847 55.9376 404.568 63.8192 422.933C67.0145 430.379 70.3207 437.766 73.736 445.094C81.852 462.506 90.5831 479.577 99.9016 496.279C104.056 503.726 108.327 511.098 112.712 518.396C122.575 534.808 133.016 550.837 144.008 566.456C148.734 573.172 153.561 579.811 158.488 586.372C170.448 602.299 182.994 617.766 196.094 632.74C200.808 638.128 205.593 643.452 210.448 648.711C225.052 664.528 240.291 679.756 256.126 694.354C260.057 697.978 264.024 701.563 268.028 705.109C286.006 721.03 304.712 736.157 324.089 750.434C326.291 752.056 328.5 753.667 330.719 755.267Z" fill="url(#paint1_linear)"/>
<path d="M415.633 0.733946C415.759 0.300484 416.16 0.00598713 416.612 0.0151241C433.72 0.361535 450.697 1.24184 467.526 2.63992C477.738 3.48828 487.895 4.52727 497.994 5.75336C516.026 7.94245 533.872 10.7279 551.512 14.0892C560.492 15.8004 569.419 17.6609 578.291 19.6679C597.616 24.0402 616.675 29.1079 635.44 34.8433C642.381 36.9648 649.282 39.1776 656.141 41.4804C677.357 48.6029 698.174 56.5859 718.55 65.3874C722.721 67.1892 726.874 69.0253 731.008 70.8953C754.462 81.505 777.31 93.2073 799.487 105.937C799.795 106.114 799.986 106.442 799.988 106.798C799.996 108.256 800 109.716 800 111.176C800 137.982 798.666 164.478 796.06 190.602C795.851 192.69 795.635 194.775 795.41 196.857C792.765 221.406 788.995 245.62 784.154 269.448C783.274 273.78 782.358 278.099 781.408 282.405C781.252 283.111 780.421 283.422 779.838 282.994C757.437 266.548 733.918 251.52 709.415 238.043C709.038 237.836 708.836 237.412 708.911 236.989C713.765 209.782 717.073 182.044 718.74 153.867C718.765 153.444 718.52 153.051 718.129 152.887L640.252 120.181L639.939 120.071C614.074 110.986 587.531 103.329 560.405 97.194L559.823 97.0627C534.427 91.3411 508.52 86.9539 482.183 83.9792C481.624 83.9161 481.123 84.3267 481.077 84.8872C480.364 93.5564 480 102.324 480 111.176C480 129.305 481.526 147.079 484.456 164.379C489.54 194.386 498.85 222.967 511.758 249.496C517.775 261.863 524.575 273.783 532.092 285.195C548.794 310.55 569.041 333.39 592.132 353.019C596.449 356.688 600.865 360.246 605.376 363.686C622.093 376.436 640.113 387.583 659.202 396.895C659.711 397.143 660.324 396.917 660.551 396.398C660.793 395.846 661.034 395.293 661.275 394.74C671.495 371.222 680.483 347.05 688.158 322.306C688.436 321.408 688.713 320.51 688.988 319.61C689.178 318.988 689.903 318.709 690.46 319.046C698.304 323.784 706.02 328.709 713.604 333.814C728.689 343.968 743.249 354.834 757.236 366.363C757.557 366.627 757.68 367.063 757.545 367.456C751.104 386.275 743.972 404.778 736.181 422.933C732.985 430.379 729.679 437.767 726.264 445.094C718.257 462.272 709.651 479.119 700.473 495.607C700.252 496.004 699.792 496.201 699.352 496.088C677.37 490.425 656.122 482.95 635.779 473.834C631.839 472.069 627.934 470.242 624.063 468.355C603.009 458.088 582.995 446.037 564.222 432.398C561.481 430.407 558.766 428.381 556.078 426.323C534.166 409.541 514.053 390.551 496.076 369.688C483.097 354.625 471.231 338.586 460.606 321.697C454.69 312.293 449.159 302.626 444.034 292.717C435.098 275.439 427.398 257.427 421.05 238.796C412.339 213.23 406.172 186.497 402.851 158.895C400.969 143.25 400 127.326 400 111.176C400 100.47 400.426 89.8621 401.261 79.3691C403.416 52.3041 408.298 26.002 415.633 0.733946Z" fill="url(#paint2_linear)"/>
<defs>
<linearGradient id="paint0_linear" x1="-6.22651e-06" y1="120.5" x2="650.5" y2="696" gradientUnits="userSpaceOnUse">
<stop offset="0.368671" stop-color="#02D5F0"/>
<stop offset="0.88699" stop-color="#0D71FD"/>
</linearGradient>
<linearGradient id="paint1_linear" x1="-6.22651e-06" y1="120.5" x2="650.5" y2="696" gradientUnits="userSpaceOnUse">
<stop offset="0.368671" stop-color="#02D5F0"/>
<stop offset="0.88699" stop-color="#0D71FD"/>
</linearGradient>
<linearGradient id="paint2_linear" x1="-6.22651e-06" y1="120.5" x2="650.5" y2="696" gradientUnits="userSpaceOnUse">
<stop offset="0.368671" stop-color="#02D5F0"/>
<stop offset="0.88699" stop-color="#0D71FD"/>
</linearGradient>
</defs>
</svg>
