<svg width="204" height="108" viewBox="0 0 204 108" fill="none" xmlns="http://www.w3.org/2000/svg">
<g filter="url(#filter0_d)">
<path d="M58.5185 11.4951C61.1774 31.3328 66.6211 40.0383 81.7233 52.2703C83.6355 48.888 84.7319 46.846 86.9831 41.4176C90.74 43.2296 92.8406 44.423 96.5744 46.8439C93.04 56.071 90.707 60.6248 85.9002 67.6191C59.3968 53.9512 45.0791 33.5741 47.9989 0.177234C68.0389 -0.860344 82.0525 2.55925 104 13.0455C102.618 22.3898 101.68 27.2587 99.8231 35.5261C95.9233 32.9798 93.861 31.8648 90.3864 30.4098C91.6735 25.9935 92.0497 23.5466 91.9334 19.247C80.9098 14.5763 73.9087 12.6234 58.5185 11.4951Z" fill="#0099E7"/>
</g>
<g filter="url(#filter1_d)">
<path d="M38.1884 1.24023C25.1546 3.87405 17.6338 6.50996 4 12.403C9.33751 51.0979 19.9404 74.8954 54.7412 99.9999C66.089 91.3768 71.9187 86.3273 80.8852 76.7441C75.8354 74.1689 73.0631 72.3721 68.1999 68.6821C61.1463 66.5951 57.0498 66.3213 49.6361 66.5116C54.7507 72.0103 57.685 74.8129 63.0949 79.0697C60.2105 82.1995 58.3296 83.7471 54.5865 86.2015C43.9749 77.4111 39.1988 71.8554 32.0005 61.2402C39.7928 56.7303 44.7512 55.6236 54.5865 55.3488C51.436 51.5211 49.8471 49.2367 47.4703 44.8061C38.2234 45.791 33.5461 47.189 25.8125 50.6976C20.6033 37.928 18.4738 30.86 16.3759 18.4495C21.3414 16.3569 23.7346 15.6237 27.3595 15.0387C28.1281 24.0565 29.3708 28.6444 32.0005 36.5891C35.9217 35.0346 38.1792 34.4365 42.3653 34.1085C38.3516 21.0761 37.4459 13.8817 38.1884 1.24023Z" fill="url(#paint0_angular)"/>
</g>
<path d="M109.503 45.919C110.306 44.801 111.381 43.9553 112.728 43.382C114.104 42.8087 115.681 42.522 117.458 42.522V48.714C116.713 48.6567 116.211 48.628 115.953 48.628C114.032 48.628 112.527 49.1727 111.438 50.262C110.349 51.3227 109.804 52.928 109.804 55.078V66H103.096V42.866H109.503V45.919ZM145.206 42.866L134.757 67.419C133.697 70.085 132.378 71.9627 130.801 73.052C129.253 74.1413 127.376 74.686 125.168 74.686C123.964 74.686 122.775 74.4997 121.599 74.127C120.424 73.7543 119.464 73.2383 118.718 72.579L121.169 67.806C121.685 68.2647 122.273 68.623 122.932 68.881C123.62 69.139 124.294 69.268 124.953 69.268C125.871 69.268 126.616 69.0387 127.189 68.58C127.763 68.15 128.279 67.419 128.737 66.387L128.823 66.172L118.804 42.866H125.727L132.22 58.561L138.756 42.866H145.206ZM161.618 42.522C163.768 42.522 165.717 43.0237 167.466 44.027C169.243 45.0017 170.633 46.392 171.637 48.198C172.64 49.9753 173.142 52.0537 173.142 54.433C173.142 56.8123 172.64 58.905 171.637 60.711C170.633 62.4883 169.243 63.8787 167.466 64.882C165.717 65.8567 163.768 66.344 161.618 66.344C158.665 66.344 156.343 65.4123 154.652 63.549V74.342H147.944V42.866H154.351V45.532C156.013 43.5253 158.436 42.522 161.618 42.522ZM160.457 60.84C162.177 60.84 163.581 60.2667 164.671 59.12C165.789 57.9447 166.348 56.3823 166.348 54.433C166.348 52.4837 165.789 50.9357 164.671 49.789C163.581 48.6137 162.177 48.026 160.457 48.026C158.737 48.026 157.318 48.6137 156.2 49.789C155.11 50.9357 154.566 52.4837 154.566 54.433C154.566 56.3823 155.11 57.9447 156.2 59.12C157.318 60.2667 158.737 60.84 160.457 60.84ZM192.553 64.882C191.894 65.3693 191.077 65.742 190.102 66C189.156 66.2293 188.153 66.344 187.092 66.344C184.34 66.344 182.204 65.6417 180.685 64.237C179.194 62.8323 178.449 60.7683 178.449 58.045V48.542H174.88V43.382H178.449V37.749H185.157V43.382H190.919V48.542H185.157V57.959C185.157 58.9337 185.401 59.6933 185.888 60.238C186.404 60.754 187.121 61.012 188.038 61.012C189.099 61.012 190.002 60.7253 190.747 60.152L192.553 64.882Z" fill="#9BAECE"/>
<defs>
<filter id="filter0_d" x="43.6249" y="0" width="64.375" height="75.6191" filterUnits="userSpaceOnUse" color-interpolation-filters="sRGB">
<feFlood flood-opacity="0" result="BackgroundImageFix"/>
<feColorMatrix in="SourceAlpha" type="matrix" values="0 0 0 0 0 0 0 0 0 0 0 0 0 0 0 0 0 0 127 0" result="hardAlpha"/>
<feOffset dy="4"/>
<feGaussianBlur stdDeviation="2"/>
<feComposite in2="hardAlpha" operator="out"/>
<feColorMatrix type="matrix" values="0 0 0 0 0 0 0 0 0 0 0 0 0 0 0 0 0 0 0.25 0"/>
<feBlend mode="normal" in2="BackgroundImageFix" result="effect1_dropShadow"/>
<feBlend mode="normal" in="SourceGraphic" in2="effect1_dropShadow" result="shape"/>
</filter>
<filter id="filter1_d" x="0" y="1.24023" width="84.8852" height="106.76" filterUnits="userSpaceOnUse" color-interpolation-filters="sRGB">
<feFlood flood-opacity="0" result="BackgroundImageFix"/>
<feColorMatrix in="SourceAlpha" type="matrix" values="0 0 0 0 0 0 0 0 0 0 0 0 0 0 0 0 0 0 127 0" result="hardAlpha"/>
<feOffset dy="4"/>
<feGaussianBlur stdDeviation="2"/>
<feComposite in2="hardAlpha" operator="out"/>
<feColorMatrix type="matrix" values="0 0 0 0 0 0 0 0 0 0 0 0 0 0 0 0 0 0 0.25 0"/>
<feBlend mode="normal" in2="BackgroundImageFix" result="effect1_dropShadow"/>
<feBlend mode="normal" in="SourceGraphic" in2="effect1_dropShadow" result="shape"/>
</filter>
<radialGradient id="paint0_angular" cx="0" cy="0" r="1" gradientUnits="userSpaceOnUse" gradientTransform="translate(47.7797 45.8914) rotate(43.559) scale(45.8973 35.8141)">
<stop offset="0.0215944" stop-color="#04D5FE"/>
<stop offset="0.756575" stop-color="#00AFFF"/>
</radialGradient>
</defs>
</svg>
