<svg width="48" height="24" viewBox="0 0 48 24" fill="none" xmlns="http://www.w3.org/2000/svg">
<path d="M5.40883 13.623H3.89809L3.30775 17.0063H1.44789L3.05385 7.76416L6.11342 7.77051C7.13751 7.77051 7.92462 8.01172 8.47475 8.49414C9.02911 8.97656 9.27455 9.6473 9.21107 10.5063C9.12221 11.7759 8.44512 12.6582 7.17982 13.1533C7.53499 14.442 7.84235 15.2893 8.48109 16.9048V17.0063H6.86466C6.64768 17.0063 6.45546 16.8664 6.38883 16.6599L5.40883 13.623ZM4.16469 12.0806L5.54848 12.0933C6.03936 12.0848 6.4435 11.9536 6.76088 11.6997C7.08249 11.4416 7.27504 11.0924 7.33852 10.6523C7.39776 10.2419 7.33217 9.92025 7.14174 9.6875C6.95131 9.45475 6.64874 9.32992 6.23402 9.31299L4.64711 9.30664L4.16469 12.0806Z" fill="#37298A"/>
<path d="M12.9943 16.2891C12.4865 16.8604 11.8559 17.1396 11.1027 17.127C10.4425 17.1185 9.94317 16.8815 9.60463 16.416C9.26609 15.9505 9.1349 15.3369 9.21107 14.5752L9.95375 10.1318H11.7438L10.9884 14.5942C10.9715 14.7339 10.9694 14.8651 10.9821 14.9878C11.0244 15.411 11.2593 15.6289 11.6867 15.6416C12.241 15.6585 12.7002 15.4448 13.0641 15.0005L13.921 10.1318H15.7238L14.5304 17H12.861L12.9943 16.2891Z" fill="#37298A"/>
<path d="M18.0188 13.7437L17.4475 17H15.5877L17.1936 7.75781L20.4309 7.76416C21.4296 7.76416 22.2146 8.04134 22.7859 8.5957C23.3572 9.15007 23.6069 9.8737 23.5349 10.7666C23.4672 11.6722 23.0885 12.3958 22.3987 12.9375C21.7132 13.4792 20.8372 13.75 19.7708 13.75L18.0188 13.7437ZM18.3809 11.6198C18.3276 11.9241 18.5603 12.2035 18.8693 12.206L19.8279 12.2139C20.3273 12.2139 20.742 12.0848 21.0721 11.8267C21.4021 11.5685 21.5989 11.2194 21.6624 10.7793C21.7259 10.3392 21.6539 9.98796 21.4466 9.72559C21.2434 9.46322 20.9409 9.32357 20.5388 9.30664L19.2085 9.30182C18.965 9.30094 18.7562 9.47569 18.7142 9.7156L18.3809 11.6198Z" fill="#37298A"/>
<path d="M27.1821 17C27.127 16.8265 27.1038 16.6191 27.1122 16.3779C26.596 16.8942 26.012 17.1439 25.3603 17.127C24.7594 17.1185 24.26 16.9238 23.8622 16.543C23.4687 16.1579 23.2846 15.6839 23.31 15.1211C23.3396 14.3721 23.6528 13.7987 24.2494 13.4009C24.8503 12.9989 25.6544 12.7979 26.6615 12.7979L27.4994 12.8105L27.5883 12.3979C27.6137 12.2583 27.62 12.125 27.6073 11.998C27.5862 11.7992 27.51 11.6447 27.3788 11.5347C27.2519 11.4204 27.0826 11.3612 26.871 11.3569C26.5917 11.3485 26.3547 11.4183 26.1601 11.5664C25.9654 11.7103 25.8406 11.9198 25.7856 12.1948L23.9892 12.2012C24.0188 11.5452 24.3193 11.0142 24.8905 10.6079C25.4661 10.1974 26.1749 9.99642 27.017 10.0049C27.7957 10.0218 28.405 10.2546 28.8451 10.7031C29.2852 11.1475 29.4693 11.7209 29.3974 12.4233L28.8705 15.7114L28.8388 16.1177C28.8303 16.4181 28.8663 16.672 28.9467 16.8794L28.9404 17H27.1821ZM25.8046 15.7368C26.3209 15.7537 26.7716 15.5295 27.1567 15.064L27.3788 13.877L26.7568 13.8706C26.0966 13.8875 25.6205 14.0885 25.3285 14.4736C25.2227 14.6133 25.1571 14.7847 25.1318 14.9878C25.0979 15.2163 25.1445 15.3983 25.2714 15.5337C25.4026 15.6649 25.5803 15.7326 25.8046 15.7368Z" fill="#37298A"/>
<path d="M32.4605 14.3848L34.4219 10.1318H36.4151L32.397 18.0347C32.1093 18.6398 31.7707 19.0841 31.3814 19.3677C30.9963 19.6512 30.5499 19.793 30.0421 19.793C29.8432 19.793 29.5554 19.7485 29.1788 19.6597L29.3121 18.2632L29.5596 18.2759C30.1436 18.2928 30.571 18.0791 30.8419 17.6348L31.2354 16.9048L30.1119 10.1318H31.9654L32.4605 14.3848Z" fill="#37298A"/>
<path d="M5.40883 13.623H3.89809L3.30775 17.0063H1.44789L3.05385 7.76416L6.11342 7.77051C7.13751 7.77051 7.92462 8.01172 8.47475 8.49414C9.02911 8.97656 9.27455 9.6473 9.21107 10.5063C9.12221 11.7759 8.44512 12.6582 7.17982 13.1533C7.53499 14.442 7.84235 15.2893 8.48109 16.9048V17.0063H6.86466C6.64768 17.0063 6.45546 16.8664 6.38883 16.6599L5.40883 13.623ZM4.16469 12.0806L5.54848 12.0933C6.03936 12.0848 6.4435 11.9536 6.76088 11.6997C7.08249 11.4416 7.27504 11.0924 7.33852 10.6523C7.39776 10.2419 7.33217 9.92025 7.14174 9.6875C6.95131 9.45475 6.64874 9.32992 6.23402 9.31299L4.64711 9.30664L4.16469 12.0806Z" stroke="#37298A" stroke-width="0.2"/>
<path d="M12.9943 16.2891C12.4865 16.8604 11.8559 17.1396 11.1027 17.127C10.4425 17.1185 9.94317 16.8815 9.60463 16.416C9.26609 15.9505 9.1349 15.3369 9.21107 14.5752L9.95375 10.1318H11.7438L10.9884 14.5942C10.9715 14.7339 10.9694 14.8651 10.9821 14.9878C11.0244 15.411 11.2593 15.6289 11.6867 15.6416C12.241 15.6585 12.7002 15.4448 13.0641 15.0005L13.921 10.1318H15.7238L14.5304 17H12.861L12.9943 16.2891Z" stroke="#37298A" stroke-width="0.2"/>
<path d="M18.0188 13.7437L17.4475 17H15.5877L17.1936 7.75781L20.4309 7.76416C21.4296 7.76416 22.2146 8.04134 22.7859 8.5957C23.3572 9.15007 23.6069 9.8737 23.5349 10.7666C23.4672 11.6722 23.0885 12.3958 22.3987 12.9375C21.7132 13.4792 20.8372 13.75 19.7708 13.75L18.0188 13.7437ZM18.3809 11.6198C18.3276 11.9241 18.5603 12.2035 18.8693 12.206L19.8279 12.2139C20.3273 12.2139 20.742 12.0848 21.0721 11.8267C21.4021 11.5685 21.5989 11.2194 21.6624 10.7793C21.7259 10.3392 21.6539 9.98796 21.4466 9.72559C21.2434 9.46322 20.9409 9.32357 20.5388 9.30664L19.2085 9.30182C18.965 9.30094 18.7562 9.47569 18.7142 9.7156L18.3809 11.6198Z" stroke="#37298A" stroke-width="0.2"/>
<path d="M27.1821 17C27.127 16.8265 27.1038 16.6191 27.1122 16.3779C26.596 16.8942 26.012 17.1439 25.3603 17.127C24.7594 17.1185 24.26 16.9238 23.8622 16.543C23.4687 16.1579 23.2846 15.6839 23.31 15.1211C23.3396 14.3721 23.6528 13.7987 24.2494 13.4009C24.8503 12.9989 25.6544 12.7979 26.6615 12.7979L27.4994 12.8105L27.5883 12.3979C27.6137 12.2583 27.62 12.125 27.6073 11.998C27.5862 11.7992 27.51 11.6447 27.3788 11.5347C27.2519 11.4204 27.0826 11.3612 26.871 11.3569C26.5917 11.3485 26.3547 11.4183 26.1601 11.5664C25.9654 11.7103 25.8406 11.9198 25.7856 12.1948L23.9892 12.2012C24.0188 11.5452 24.3193 11.0142 24.8905 10.6079C25.4661 10.1974 26.1749 9.99642 27.017 10.0049C27.7957 10.0218 28.405 10.2546 28.8451 10.7031C29.2852 11.1475 29.4693 11.7209 29.3974 12.4233L28.8705 15.7114L28.8388 16.1177C28.8303 16.4181 28.8663 16.672 28.9467 16.8794L28.9404 17H27.1821ZM25.8046 15.7368C26.3209 15.7537 26.7716 15.5295 27.1567 15.064L27.3788 13.877L26.7568 13.8706C26.0966 13.8875 25.6205 14.0885 25.3285 14.4736C25.2227 14.6133 25.1571 14.7847 25.1318 14.9878C25.0979 15.2163 25.1445 15.3983 25.2714 15.5337C25.4026 15.6649 25.5803 15.7326 25.8046 15.7368Z" stroke="#37298A" stroke-width="0.2"/>
<path d="M32.4605 14.3848L34.4219 10.1318H36.4151L32.397 18.0347C32.1093 18.6398 31.7707 19.0841 31.3814 19.3677C30.9963 19.6512 30.5499 19.793 30.0421 19.793C29.8432 19.793 29.5554 19.7485 29.1788 19.6597L29.3121 18.2632L29.5596 18.2759C30.1436 18.2928 30.571 18.0791 30.8419 17.6348L31.2354 16.9048L30.1119 10.1318H31.9654L32.4605 14.3848Z" stroke="#37298A" stroke-width="0.2"/>
<path d="M46.561 12.5862L39.1757 20L42.2367 5.59929L46.561 12.5862Z" fill="#008742"/>
<path d="M43.5 12.5L36.1147 19.9138L39.1757 5.51307L43.5 12.5Z" fill="#EC761F"/>
</svg>
