<svg width="18" height="22" viewBox="0 0 18 22" fill="none" xmlns="http://www.w3.org/2000/svg">
<path fill-rule="evenodd" clip-rule="evenodd" d="M2 6.5C2 6.22386 1.77614 6 1.5 6V6C1.22386 6 1 6.22386 1 6.5V7V16C1 19.3137 3.68629 22 7 22H11C14.3137 22 17 19.3137 17 16V7V6.5C17 6.22386 16.7761 6 16.5 6V6C16.2239 6 16 6.22386 16 6.5V7V9V16C16 18.7614 13.7614 21 11 21H7C4.23858 21 2 18.7614 2 16V9V7V6.5Z" fill="black"/>
<mask id="path-2-inside-1" fill="white">
<path d="M14 5C14 3.67392 13.4732 2.40215 12.5355 1.46447C11.5979 0.526784 10.3261 1.00116e-07 9 0C7.67392 -1.00116e-07 6.40215 0.526784 5.46447 1.46447C4.52678 2.40215 4 3.67392 4 5L9 5H14Z"/>
</mask>
<path d="M14 5C14 3.67392 13.4732 2.40215 12.5355 1.46447C11.5979 0.526784 10.3261 1.00116e-07 9 0C7.67392 -1.00116e-07 6.40215 0.526784 5.46447 1.46447C4.52678 2.40215 4 3.67392 4 5L9 5H14Z" stroke="#29C9EC" stroke-width="2" mask="url(#path-2-inside-1)"/>
<rect y="4" width="18" height="1" rx="0.5" fill="black"/>
</svg>
