<svg width="532" height="532" viewBox="0 0 532 532" fill="none" xmlns="http://www.w3.org/2000/svg">
<path d="M107.118 106.344C107.118 110.769 107.209 115.173 107.388 119.554C107.424 120.45 107.464 121.344 107.508 122.237C107.763 127.4 108.14 132.53 108.637 137.624L108.684 138.102C109.211 143.41 109.868 148.68 110.652 153.908C110.724 154.386 110.796 154.863 110.87 155.34C111.612 160.138 112.462 164.902 113.416 169.627C113.621 170.643 113.831 171.657 114.046 172.67C114.941 176.887 115.92 181.073 116.98 185.227C117.352 186.685 117.734 188.138 118.126 189.588C119.134 193.311 120.207 197.008 121.345 200.677C121.905 202.481 122.48 204.278 123.071 206.068C124.166 209.384 125.313 212.677 126.513 215.944C127.269 218.002 128.045 220.051 128.842 222.089C130.012 225.08 131.226 228.05 132.483 230.996C133.432 233.221 134.405 235.432 135.403 237.63C136.649 240.375 137.932 243.098 139.253 245.8C140.381 248.107 141.536 250.398 142.717 252.673C144.052 255.244 145.421 257.794 146.823 260.323C148.105 262.633 149.414 264.926 150.75 267.2C152.198 269.664 153.679 272.107 155.191 274.528C156.59 276.769 158.017 278.991 159.47 281.194C161.066 283.613 162.693 286.009 164.353 288.382C165.825 290.487 167.323 292.573 168.844 294.64C170.632 297.069 172.454 299.471 174.308 301.847C175.799 303.756 177.311 305.648 178.844 307.522C180.878 310.008 182.948 312.462 185.054 314.885C186.5 316.547 187.962 318.194 189.441 319.825C191.782 322.408 194.166 324.952 196.59 327.456C197.917 328.828 199.257 330.188 200.609 331.535C203.329 334.246 206.097 336.908 208.913 339.52C210.043 340.568 211.18 341.607 212.325 342.639C215.501 345.5 218.735 348.298 222.025 351.031C222.87 351.733 223.719 352.431 224.572 353.125C228.288 356.148 232.073 359.088 235.925 361.943C236.399 362.295 236.875 362.645 237.351 362.994C241.69 366.173 246.112 369.244 250.614 372.205L250.782 372.315C255.279 375.268 259.854 378.109 264.505 380.835C265.487 381.411 266.703 381.411 267.684 380.835C272.335 378.109 276.911 375.268 281.407 372.315L281.575 372.205C286.077 369.244 290.499 366.173 294.838 362.994C295.315 362.645 295.79 362.295 296.265 361.943C300.117 359.088 303.902 356.148 307.617 353.125C308.47 352.431 309.319 351.733 310.165 351.031C313.454 348.298 316.688 345.5 319.864 342.639C321.009 341.607 322.146 340.568 323.276 339.52C326.092 336.908 328.86 334.246 331.58 331.535C332.932 330.188 334.272 328.828 335.6 327.456C338.024 324.952 340.407 322.408 342.748 319.825C344.227 318.194 345.69 316.547 347.135 314.885C349.242 312.462 351.312 310.008 353.345 307.522C354.878 305.648 356.391 303.756 357.881 301.847C359.736 299.471 361.557 297.069 363.345 294.64C364.01 293.737 364.67 292.831 365.325 291.92C366.581 290.176 365.747 287.725 363.712 287.034C359.862 285.727 356.066 284.3 352.331 282.758C352.087 282.657 351.843 282.556 351.6 282.455C346.841 280.467 342.181 278.293 337.627 275.94C332.872 273.483 328.234 270.833 323.722 267.998C319.223 265.171 314.85 262.162 310.613 258.98C309.357 258.036 308.113 257.078 306.881 256.104C303.949 253.787 301.086 251.385 298.297 248.903C295.249 246.19 292.288 243.382 289.42 240.481C288.027 239.072 285.696 239.221 284.498 240.799C282.145 243.898 279.713 246.933 277.205 249.902L276.829 250.346C274.063 253.602 271.205 256.778 268.26 259.869C267.066 261.122 267.062 263.1 268.291 264.319C268.644 264.67 268.999 265.019 269.354 265.368C272.044 268.001 274.799 270.567 277.619 273.063C281.599 276.586 285.707 279.969 289.933 283.203C290.628 283.735 291.326 284.262 292.027 284.786C295.616 287.466 299.288 290.041 303.04 292.505C306.436 294.735 309.897 296.876 313.419 298.922C315.202 299.958 315.588 302.384 314.164 303.875C312.36 305.766 310.531 307.631 308.676 309.472C307.597 310.543 306.509 311.606 305.412 312.66C302.53 315.431 299.59 318.142 296.593 320.791C295.436 321.815 294.27 322.829 293.096 323.834C289.82 326.638 286.48 329.369 283.079 332.024C282.055 332.824 281.025 333.617 279.99 334.402C276.026 337.412 271.981 340.321 267.859 343.124C266.794 343.849 265.395 343.849 264.33 343.124C260.208 340.321 256.163 337.412 252.199 334.402C251.164 333.617 250.135 332.824 249.111 332.024C245.709 329.369 242.369 326.638 239.094 323.834C237.92 322.829 236.754 321.815 235.596 320.791C232.6 318.142 229.66 315.431 226.777 312.66C225.681 311.606 224.593 310.543 223.513 309.472C220.7 306.68 217.945 303.831 215.249 300.925C214.282 299.883 213.322 298.833 212.37 297.776C209.688 294.798 207.068 291.763 204.511 288.673C203.671 287.659 202.839 286.638 202.013 285.612C199.462 282.443 196.978 279.218 194.562 275.94C193.831 274.947 193.106 273.95 192.387 272.948C189.989 269.604 187.661 266.207 185.406 262.759C184.757 261.768 184.115 260.773 183.479 259.773C181.26 256.285 179.113 252.746 177.043 249.157C176.935 248.971 176.828 248.785 176.721 248.598C175.906 247.179 176.319 245.374 177.678 244.463C181.283 242.047 184.992 239.773 188.797 237.652C193.42 235.075 198.184 232.722 203.075 230.608C205.174 229.701 207.296 228.838 209.44 228.02C212.31 226.925 215.219 225.911 218.165 224.981C223.389 223.331 228.729 221.944 234.17 220.834C236.19 220.423 238.223 220.049 240.27 219.715C243.915 219.119 247.602 218.648 251.326 218.305C254.869 217.979 258.445 217.768 262.051 217.678C263.395 217.645 264.743 217.628 266.095 217.628V217.628C267.755 217.628 268.752 215.739 267.811 214.371C267.232 213.531 266.66 212.685 266.095 211.835C263.925 208.572 261.854 205.238 259.884 201.839C258.878 200.102 257.898 198.348 256.946 196.577C255.491 193.873 254.101 191.13 252.775 188.35C252.205 187.154 250.964 186.419 249.645 186.532C247.786 186.691 245.936 186.876 244.093 187.088C241.138 187.427 238.204 187.834 235.292 188.307C231.018 189 226.791 189.836 222.617 190.809C221.545 191.059 220.477 191.318 219.411 191.586C214.216 192.893 209.105 194.412 204.089 196.136C200.209 197.468 196.385 198.923 192.623 200.494C191.502 200.962 190.387 201.441 189.278 201.929C184.399 204.078 179.628 206.425 174.973 208.96C171.381 210.917 167.859 212.986 164.411 215.162C162.728 216.224 160.479 215.543 159.732 213.699C158.698 211.144 157.699 208.571 156.737 205.981C156.258 204.69 155.787 203.395 155.326 202.096C153.997 198.353 152.744 194.574 151.569 190.762C151.132 189.346 150.706 187.925 150.291 186.499C149.184 182.698 148.154 178.865 147.203 175.001C146.832 173.495 146.473 171.985 146.126 170.47C145.213 166.481 144.383 162.46 143.638 158.409C143.371 156.953 143.114 155.494 142.869 154.03C142.092 149.402 141.427 144.736 140.876 140.035C140.765 139.094 140.66 138.151 140.558 137.208C140.023 132.212 139.616 127.177 139.34 122.108C139.272 120.847 139.965 119.669 141.101 119.117C145.452 117 149.866 114.991 154.337 113.092L154.888 112.859C160.085 110.665 165.36 108.62 170.708 106.73C170.708 106.697 170.758 106.686 170.832 106.686C175.979 104.87 181.194 103.196 186.471 101.67L186.652 101.618C191.748 100.148 196.903 98.8167 202.111 97.6271L202.677 97.4985C202.562 100.433 202.504 103.382 202.504 106.344C202.504 108.852 202.546 111.35 202.628 113.838C202.807 119.257 203.18 124.627 203.74 129.941C204.303 135.279 205.054 140.561 205.987 145.779C206.488 148.583 207.042 151.368 207.647 154.133C207.946 155.502 208.258 156.865 208.583 158.224C208.993 159.942 210.741 160.968 212.456 160.544C216.039 159.657 219.657 158.857 223.306 158.147C223.827 158.045 224.348 157.945 224.871 157.848C228.886 157.096 232.94 156.451 237.029 155.918C238.953 155.667 240.235 153.788 239.773 151.903C238.802 147.939 237.955 143.926 237.235 139.868C236.316 134.685 235.607 129.429 235.116 124.11C234.575 118.26 234.299 112.335 234.299 106.344C234.299 101.565 234.475 96.8271 234.821 92.1361C235.222 86.6772 235.854 81.2821 236.706 75.9606C237.35 71.9364 238.12 67.9542 239.011 64.0183C239.492 61.8947 237.79 59.8866 235.623 60.0927C232.413 60.3979 229.217 60.7508 226.036 61.1508C225.115 61.2665 224.196 61.3861 223.278 61.5096C218.788 62.1141 214.327 62.8123 209.898 63.6022C208.757 63.8055 207.619 64.015 206.483 64.2305C202.284 65.0269 198.115 65.9058 193.976 66.8656C192.544 67.1978 191.115 67.5396 189.691 67.8911C185.866 68.8345 182.069 69.8471 178.3 70.9276C176.506 71.4418 174.719 71.9714 172.939 72.5161C169.566 73.5481 166.217 74.6347 162.893 75.7748C160.673 76.5362 158.464 77.3215 156.266 78.1304C155.781 78.3091 155.296 78.489 154.811 78.67C152.452 79.5517 150.106 80.4605 147.773 81.3962C145.069 82.4812 142.383 83.6023 139.715 84.7589L132.942 87.791C129.708 89.2842 126.504 90.8301 123.331 92.4276C121.639 93.2791 119.956 94.1453 118.282 95.026C115.062 96.7198 111.874 98.4672 108.721 100.267C107.751 100.821 107.147 101.847 107.136 102.964C107.124 104.09 107.118 105.216 107.118 106.344Z" fill="url(#paint0_linear_1040_2547)"/>
<path d="M390.218 253.009C389.261 254.851 388.287 256.683 387.295 258.504C386.603 259.775 385.132 260.41 383.736 260.027C379.276 258.806 374.894 257.396 370.6 255.805C370.12 255.627 369.64 255.447 369.162 255.265C364.636 253.538 360.209 251.61 355.892 249.493C351.116 247.15 346.475 244.575 341.984 241.782C337.456 238.966 333.08 235.93 328.872 232.687C327.048 231.281 325.255 229.837 323.494 228.355C321.12 226.356 318.805 224.289 316.553 222.157C312.503 218.324 308.654 214.28 305.024 210.042C303.733 208.535 302.47 207.003 301.235 205.447C298.807 202.388 296.489 199.238 294.287 196.002C292.384 193.205 290.567 190.344 288.842 187.423C287.265 184.753 285.763 182.033 284.341 179.266C282.897 176.458 281.534 173.601 280.256 170.699C278.383 166.447 276.691 162.097 275.19 157.66C274.834 156.608 274.489 155.552 274.155 154.491C272.511 149.27 271.129 143.933 270.024 138.496C268.964 133.278 268.16 127.968 267.625 122.579C267.106 117.349 266.84 112.046 266.84 106.68C266.84 101.315 267.106 96.0116 267.625 90.7831C268.159 85.4057 268.96 80.1071 270.017 74.9008C270.967 70.2147 272.124 65.6035 273.477 61.077C273.834 59.8846 274.949 59.0858 276.193 59.1217V59.1217C281.014 59.261 285.809 59.5076 290.574 59.8592C291.348 59.9163 292.121 59.9762 292.893 60.0388C297.591 60.4199 302.261 60.903 306.899 61.4861C307.819 61.6018 308.739 61.7215 309.656 61.845C314.147 62.4495 318.608 63.1476 323.037 63.9375C324.177 64.1409 325.316 64.3504 326.452 64.5659C330.65 65.3622 334.82 66.2412 338.958 67.2009C340.391 67.5331 341.819 67.875 343.244 68.2264C347.069 69.1698 350.866 70.1825 354.635 71.2629C356.428 71.7771 358.216 72.3067 359.996 72.8515C363.369 73.8835 366.718 74.97 370.042 76.1101C372.262 76.8715 374.471 77.6568 376.669 78.4657C379.519 79.5149 382.35 80.6037 385.161 81.7315C387.866 82.8165 390.552 83.9376 393.219 85.0942C395.491 86.0793 397.749 87.0901 399.993 88.1263C403.226 89.6195 406.43 91.1654 409.604 92.7629C414.549 95.2521 419.421 97.8667 424.214 100.602C425.184 101.156 425.787 102.183 425.799 103.3C425.811 104.425 425.816 105.552 425.816 106.68C425.816 111.105 425.726 115.509 425.547 119.89L425.546 119.92C425.51 120.805 425.47 121.689 425.426 122.573C425.172 127.735 424.795 132.865 424.297 137.96L424.25 138.437C423.724 143.746 423.067 149.015 422.283 154.244C422.211 154.721 422.138 155.198 422.065 155.675C421.323 160.474 420.473 165.237 419.519 169.962V169.962C419.231 171.385 417.561 172.015 416.388 171.161C415.423 170.459 414.453 169.763 413.478 169.074C410.582 167.027 407.641 165.039 404.656 163.112C400.527 160.445 396.315 157.894 392.026 155.464C390.854 154.801 390.216 153.478 390.429 152.148C391.052 148.248 391.595 144.321 392.059 140.37C392.169 139.429 392.275 138.487 392.376 137.543C392.912 132.547 393.319 127.513 393.594 122.443C393.663 121.183 392.969 120.004 391.834 119.452C387.482 117.335 383.069 115.326 378.597 113.427L378.047 113.194C372.849 111 367.574 108.955 362.226 107.065C357.038 105.232 351.783 103.543 346.463 102.006L346.282 101.953C341.186 100.484 336.032 99.1521 330.824 97.9624L330.258 97.8339C325.272 96.7057 320.236 95.7077 315.155 94.8437C314.834 94.7891 314.512 94.7349 314.19 94.6814C310.343 94.0407 306.469 93.4768 302.572 92.9913C300.825 92.7737 299.244 94.0356 299.095 95.7893C298.791 99.379 298.635 103.011 298.635 106.68C298.635 107.298 298.64 107.916 298.648 108.532C298.727 114.014 299.152 119.413 299.903 124.707C300.704 130.352 301.876 135.878 303.393 141.259C304.824 146.338 306.564 151.289 308.589 156.089C308.928 156.891 309.274 157.688 309.628 158.482C312.399 164.686 315.651 170.627 319.339 176.259C319.534 176.558 319.731 176.856 319.929 177.153C323.248 182.129 326.908 186.858 330.876 191.306C333.853 194.643 337.003 197.823 340.312 200.83C341.262 201.693 342.225 202.542 343.201 203.377C347.351 206.926 351.731 210.212 356.317 213.21C359.85 215.519 363.504 217.657 367.268 219.613C368.872 220.446 370.833 219.722 371.537 218.058C371.605 217.896 371.673 217.735 371.741 217.573C373.303 213.86 374.789 210.107 376.198 206.316C376.677 205.026 377.148 203.73 377.609 202.431C378.937 198.688 380.19 194.91 381.366 191.097C381.395 191.003 381.423 190.91 381.452 190.816C382.067 188.814 384.403 187.909 386.17 189.033C389.678 191.266 393.12 193.594 396.49 196.013C397.63 196.831 398.761 197.66 399.884 198.498C402.711 200.609 405.486 202.786 408.207 205.026C409.211 205.853 409.598 207.215 409.181 208.447C408.295 211.073 407.375 213.684 406.422 216.279C405.666 218.338 404.889 220.386 404.092 222.425C402.923 225.416 401.709 228.385 400.452 231.331C399.503 233.556 398.53 235.768 397.532 237.966C396.286 240.71 395.002 243.434 393.681 246.136C392.554 248.442 391.399 250.734 390.218 253.009Z" fill="url(#paint1_linear_1040_2547)"/>
<path d="M124.809 448.218H153.577V457.064H124.809V448.218ZM125.636 473.019H158.29V482.029H114.889V424.162H157.132V433.173H125.636V473.019ZM197.054 482.856C192.645 482.856 188.539 482.14 184.737 480.707C180.989 479.219 177.71 477.152 174.899 474.507C172.144 471.806 169.994 468.637 168.451 465C166.908 461.362 166.137 457.394 166.137 453.096C166.137 448.797 166.908 444.829 168.451 441.191C169.994 437.554 172.171 434.413 174.982 431.767C177.793 429.067 181.072 427 184.819 425.567C188.567 424.079 192.673 423.335 197.137 423.335C201.877 423.335 206.203 424.162 210.116 425.815C214.029 427.413 217.335 429.811 220.036 433.007L213.092 439.538C210.998 437.278 208.655 435.598 206.065 434.495C203.475 433.338 200.664 432.759 197.633 432.759C194.602 432.759 191.819 433.255 189.283 434.247C186.803 435.239 184.627 436.645 182.753 438.463C180.934 440.282 179.501 442.431 178.454 444.911C177.462 447.391 176.966 450.12 176.966 453.096C176.966 456.072 177.462 458.8 178.454 461.28C179.501 463.76 180.934 465.909 182.753 467.728C184.627 469.546 186.803 470.952 189.283 471.944C191.819 472.936 194.602 473.432 197.633 473.432C200.664 473.432 203.475 472.881 206.065 471.778C208.655 470.621 210.998 468.885 213.092 466.57L220.036 473.184C217.335 476.325 214.029 478.723 210.116 480.376C206.203 482.029 201.849 482.856 197.054 482.856ZM230.333 482.029V424.162H254.142C259.267 424.162 263.648 424.989 267.286 426.642C270.978 428.295 273.816 430.665 275.8 433.751C277.785 436.838 278.777 440.503 278.777 444.746C278.777 448.99 277.785 452.655 275.8 455.741C273.816 458.772 270.978 461.114 267.286 462.768C263.648 464.366 259.267 465.165 254.142 465.165H236.285L241.08 460.288V482.029H230.333ZM268.195 482.029L253.563 461.032H265.054L279.769 482.029H268.195ZM241.08 461.445L236.285 456.32H253.646C258.385 456.32 261.94 455.3 264.31 453.261C266.735 451.222 267.947 448.384 267.947 444.746C267.947 441.054 266.735 438.215 264.31 436.231C261.94 434.247 258.385 433.255 253.646 433.255H236.285L241.08 427.965V461.445ZM304.212 482.029V459.13L306.609 465.744L281.478 424.162H292.969L313.14 457.642H306.692L327.028 424.162H337.609L312.478 465.744L314.959 459.13V482.029H304.212ZM343.921 482.029V424.162H367.729C372.854 424.162 377.236 424.989 380.873 426.642C384.566 428.295 387.404 430.665 389.388 433.751C391.372 436.838 392.364 440.503 392.364 444.746C392.364 448.99 391.372 452.655 389.388 455.741C387.404 458.827 384.566 461.197 380.873 462.85C377.236 464.504 372.854 465.33 367.729 465.33H349.873L354.667 460.288V482.029H343.921ZM354.667 461.445L349.873 456.237H367.233C371.973 456.237 375.527 455.245 377.897 453.261C380.322 451.222 381.534 448.384 381.534 444.746C381.534 441.054 380.322 438.215 377.897 436.231C375.527 434.247 371.973 433.255 367.233 433.255H349.873L354.667 427.965V461.445ZM413.139 482.029V433.255H393.96V424.162H443.065V433.255H423.886V482.029H413.139Z" fill="black"/>
<defs>
<linearGradient id="paint0_linear_1040_2547" x1="107.118" y1="107.678" x2="369.138" y2="336.57" gradientUnits="userSpaceOnUse">
<stop offset="0.368671" stop-color="#02D5F0"/>
<stop offset="0.88699" stop-color="#0D71FD"/>
</linearGradient>
<linearGradient id="paint1_linear_1040_2547" x1="107.118" y1="107.678" x2="369.138" y2="336.57" gradientUnits="userSpaceOnUse">
<stop offset="0.368671" stop-color="#02D5F0"/>
<stop offset="0.88699" stop-color="#0D71FD"/>
</linearGradient>
</defs>
</svg>
