<svg width="512" height="512" viewBox="0 0 512 512" fill="none" xmlns="http://www.w3.org/2000/svg">
<path d="M41 101.787C41 107.758 41.122 113.7 41.3635 119.611C41.4129 120.819 41.4672 122.025 41.5266 123.231C41.8695 130.196 42.3785 137.117 43.0497 143.991L43.1131 144.636C43.8234 151.798 44.7098 158.908 45.7679 165.963C45.8646 166.607 45.9626 167.25 46.0621 167.893C47.0635 174.368 48.2098 180.795 49.4973 187.171C49.7742 188.542 50.0576 189.91 50.3475 191.276C51.5549 196.966 52.8751 202.614 54.3057 208.219C54.8078 210.185 55.3234 212.146 55.8525 214.102C57.2118 219.127 58.6601 224.114 60.1956 229.064C60.9508 231.498 61.7271 233.923 62.5243 236.338C64.001 240.813 65.5494 245.255 67.1681 249.663C68.188 252.44 69.2358 255.204 70.3111 257.955C71.8893 261.991 73.5268 265.997 75.2227 269.972C76.503 272.974 77.8166 275.958 79.163 278.924C80.8438 282.626 82.5758 286.301 84.3579 289.947C85.8794 293.059 87.4374 296.15 89.0314 299.22C90.8325 302.688 92.6795 306.128 94.5717 309.54C96.3003 312.658 98.0667 315.751 99.8702 318.82C101.824 322.145 103.821 325.441 105.861 328.707C107.749 331.731 109.674 334.729 111.635 337.702C113.788 340.966 115.984 344.198 118.223 347.399C120.21 350.239 122.23 353.054 124.283 355.843C126.695 359.12 129.153 362.361 131.655 365.566C133.667 368.143 135.707 370.695 137.776 373.224C140.519 376.578 143.312 379.89 146.154 383.158C148.105 385.4 150.078 387.623 152.073 389.824C155.232 393.309 158.448 396.741 161.718 400.12C163.51 401.971 165.318 403.805 167.142 405.624C170.811 409.281 174.547 412.873 178.346 416.397C179.87 417.81 181.405 419.213 182.95 420.605C187.235 424.465 191.598 428.24 196.036 431.928C197.177 432.876 198.323 433.817 199.473 434.753C204.486 438.831 209.594 442.798 214.791 446.651C215.431 447.125 216.073 447.598 216.716 448.069C222.57 452.358 228.536 456.502 234.61 460.496L234.837 460.645C240.904 464.629 247.077 468.462 253.353 472.141C254.677 472.918 256.317 472.918 257.642 472.141C263.917 468.462 270.091 464.629 276.157 460.645L276.384 460.496C282.459 456.502 288.425 452.358 294.279 448.069C294.922 447.598 295.564 447.125 296.204 446.651C301.401 442.798 306.508 438.831 311.521 434.753C312.672 433.817 313.817 432.876 314.958 431.928C319.397 428.24 323.76 424.465 328.045 420.605C329.59 419.213 331.124 417.81 332.649 416.397C336.448 412.873 340.183 409.281 343.853 405.624C345.677 403.805 347.485 401.971 349.276 400.12C352.547 396.741 355.762 393.309 358.921 389.824C360.917 387.623 362.89 385.4 364.84 383.158C367.682 379.89 370.476 376.578 373.219 373.224C375.288 370.695 377.328 368.143 379.339 365.566C381.841 362.361 384.299 359.12 386.711 355.843C387.608 354.625 388.499 353.402 389.383 352.173C391.077 349.82 389.952 346.513 387.206 345.581C382.011 343.817 376.891 341.892 371.85 339.812C371.521 339.676 371.192 339.539 370.864 339.402C364.444 336.72 358.156 333.786 352.012 330.612C345.596 327.297 339.338 323.721 333.251 319.897C327.18 316.083 321.279 312.022 315.564 307.729C313.869 306.456 312.19 305.162 310.528 303.849C306.572 300.722 302.709 297.482 298.946 294.133C294.833 290.473 290.839 286.683 286.969 282.77C285.089 280.868 281.944 281.069 280.327 283.199C277.153 287.38 273.872 291.475 270.488 295.481L269.98 296.08C266.249 300.473 262.393 304.758 258.419 308.928C256.807 310.619 256.803 313.288 258.46 314.933C258.937 315.406 259.415 315.878 259.895 316.348C263.524 319.901 267.242 323.363 271.046 326.73C276.416 331.484 281.958 336.048 287.661 340.412C288.599 341.129 289.54 341.841 290.486 342.548C295.328 346.164 300.283 349.637 305.345 352.962C309.927 355.972 314.597 358.86 319.349 361.621C321.755 363.018 322.275 366.291 320.354 368.304C317.921 370.854 315.452 373.371 312.95 375.854C311.493 377.3 310.025 378.734 308.546 380.156C304.657 383.894 300.69 387.552 296.647 391.127C295.085 392.508 293.512 393.877 291.928 395.232C287.508 399.015 283.002 402.7 278.413 406.283C277.031 407.362 275.642 408.432 274.246 409.492C268.897 413.553 263.439 417.477 257.878 421.26C256.441 422.237 254.554 422.237 253.117 421.26C247.555 417.477 242.097 413.553 236.749 409.492C235.352 408.432 233.963 407.362 232.582 406.283C227.992 402.7 223.486 399.015 219.066 395.232C217.482 393.876 215.909 392.508 214.348 391.127C210.305 387.552 206.338 383.894 202.449 380.156C200.969 378.734 199.501 377.3 198.045 375.854C194.25 372.088 190.532 368.244 186.895 364.323C185.59 362.917 184.295 361.5 183.01 360.074C179.391 356.056 175.856 351.961 172.406 347.792C171.273 346.423 170.15 345.047 169.035 343.662C165.594 339.386 162.243 335.035 158.983 330.612C157.996 329.273 157.017 327.927 156.047 326.575C152.812 322.064 149.671 317.481 146.628 312.828C145.754 311.49 144.888 310.148 144.029 308.799C141.034 304.093 138.139 299.318 135.345 294.476C135.2 294.225 135.055 293.973 134.91 293.721C133.812 291.807 134.369 289.372 136.202 288.143C141.066 284.882 146.07 281.815 151.205 278.953C157.441 275.476 163.869 272.301 170.469 269.449C173.3 268.225 176.164 267.06 179.057 265.956C182.928 264.479 186.853 263.111 190.829 261.856C197.877 259.63 205.082 257.758 212.424 256.262C215.148 255.706 217.892 255.202 220.653 254.751C225.571 253.948 230.546 253.312 235.571 252.849C240.35 252.408 245.176 252.125 250.041 252.003C251.854 251.958 253.673 251.935 255.497 251.935V251.935C257.737 251.935 259.083 249.386 257.813 247.541C257.032 246.407 256.26 245.266 255.497 244.119C252.57 239.717 249.775 235.219 247.117 230.632C245.76 228.288 244.438 225.921 243.153 223.532C241.191 219.884 239.314 216.183 237.526 212.432C236.757 210.819 235.083 209.827 233.302 209.98C230.795 210.194 228.298 210.444 225.811 210.729C221.825 211.187 217.866 211.736 213.937 212.374C208.17 213.31 202.467 214.438 196.836 215.75C195.389 216.088 193.948 216.437 192.51 216.798C185.501 218.562 178.605 220.612 171.837 222.937C166.602 224.735 161.443 226.698 156.366 228.818C154.855 229.45 153.35 230.095 151.853 230.754C145.271 233.653 138.833 236.82 132.553 240.24C127.706 242.88 122.953 245.672 118.301 248.608C116.031 250.041 112.997 249.123 111.989 246.634C110.593 243.187 109.246 239.716 107.948 236.221C107.301 234.479 106.666 232.732 106.044 230.979C104.251 225.929 102.56 220.83 100.975 215.686C100.386 213.776 99.8109 211.859 99.2508 209.935C97.7574 204.807 96.3675 199.635 95.0835 194.421C94.5833 192.389 94.0991 190.352 93.6311 188.308C92.3989 182.925 91.2792 177.5 90.2746 172.035C89.9135 170.071 89.5673 168.101 89.2361 166.127C88.1886 159.882 87.291 153.586 86.5471 147.244C86.3982 145.974 86.2555 144.703 86.1189 143.429C85.3961 136.689 84.8467 129.896 84.4754 123.056C84.383 121.355 85.3186 119.765 86.8507 119.02C92.7222 116.164 98.6768 113.453 104.71 110.891L105.453 110.577C112.465 107.617 119.582 104.858 126.797 102.308C126.798 102.263 126.865 102.248 126.965 102.248C133.91 99.7973 140.946 97.5394 148.066 95.4808L148.311 95.4103C155.186 93.4275 162.141 91.6307 169.168 90.0256L169.931 89.8521C169.776 93.8113 169.698 97.7902 169.698 101.787C169.698 105.171 169.754 108.542 169.865 111.898C170.107 119.21 170.611 126.455 171.366 133.624C172.125 140.827 173.139 147.953 174.398 154.995C175.074 158.777 175.821 162.534 176.637 166.266C177.041 168.112 177.462 169.952 177.9 171.785C178.453 174.103 180.812 175.487 183.126 174.915C187.96 173.719 192.841 172.64 197.765 171.681C198.468 171.544 199.172 171.409 199.876 171.278C205.294 170.263 210.764 169.394 216.28 168.674C218.877 168.335 220.607 165.8 219.984 163.257C218.673 157.908 217.529 152.493 216.559 147.019C215.319 140.025 214.362 132.934 213.699 125.757C212.97 117.865 212.598 109.87 212.598 101.787C212.598 95.3391 212.835 88.9462 213.301 82.6169C213.843 75.2515 214.695 67.9723 215.845 60.7923C216.714 55.3627 217.752 49.9898 218.955 44.6793C219.604 41.8141 217.308 39.1047 214.383 39.3828C210.052 39.7945 205.74 40.2707 201.448 40.8103C200.206 40.9664 198.966 41.1278 197.728 41.2945C191.669 42.1101 185.65 43.0521 179.674 44.1179C178.135 44.3923 176.6 44.6749 175.067 44.9656C169.402 46.0401 163.776 47.2261 158.192 48.521C156.26 48.9692 154.332 49.4304 152.41 49.9046C147.25 51.1775 142.126 52.5438 137.041 54.0016C134.621 54.6954 132.21 55.4099 129.807 56.1449C125.257 57.5373 120.738 59.0034 116.253 60.5417C113.258 61.569 110.277 62.6285 107.312 63.7199C106.657 63.961 106.003 64.2037 105.349 64.448C102.166 65.6375 99.0005 66.8638 95.8536 68.1262C92.2045 69.5902 88.5802 71.1028 84.9814 72.6633L75.8424 76.7543C71.4797 78.769 67.1566 80.8548 62.8746 83.0102C60.5921 84.1591 58.3214 85.3278 56.0625 86.516C51.7179 88.8014 47.4173 91.1591 43.1623 93.5876C41.8533 94.3346 41.0394 95.7198 41.0237 97.2269C41.0079 98.7451 41 100.265 41 101.787Z" fill="url(#paint0_linear_1061_2066)"/>
<path d="M422.969 299.672C421.678 302.158 420.363 304.63 419.025 307.087C418.091 308.802 416.107 309.658 414.223 309.142C408.206 307.495 402.294 305.592 396.5 303.446C395.852 303.206 395.205 302.962 394.56 302.716C388.453 300.386 382.48 297.785 376.655 294.928C370.212 291.767 363.95 288.293 357.89 284.524C351.781 280.726 345.877 276.629 340.199 272.253C337.737 270.357 335.318 268.408 332.943 266.409C329.74 263.712 326.616 260.923 323.577 258.047C318.112 252.874 312.92 247.418 308.023 241.7C306.281 239.666 304.576 237.599 302.91 235.501C299.633 231.373 296.506 227.122 293.535 222.756C290.967 218.983 288.517 215.123 286.189 211.182C284.061 207.579 282.035 203.91 280.115 200.176C278.168 196.387 276.329 192.533 274.604 188.617C272.078 182.88 269.795 177.011 267.769 171.024C267.289 169.605 266.824 168.18 266.373 166.748C264.154 159.704 262.289 152.504 260.799 145.167C259.369 138.128 258.284 130.963 257.562 123.691C256.861 116.636 256.503 109.48 256.503 102.24C256.503 95.001 256.861 87.8459 257.562 80.7915C258.282 73.536 259.364 66.3869 260.789 59.3624C262.072 53.0398 263.633 46.8182 265.458 40.7108C265.939 39.1019 267.444 38.0242 269.122 38.0727V38.0727C275.627 38.2606 282.096 38.5933 288.525 39.0677C289.569 39.1448 290.612 39.2255 291.654 39.31C297.993 39.8241 304.294 40.4761 310.552 41.2628C311.794 41.4189 313.034 41.5803 314.272 41.747C320.331 42.5626 326.35 43.5046 332.326 44.5704C333.865 44.8447 335.4 45.1273 336.933 45.4181C342.598 46.4926 348.224 47.6785 353.808 48.9734C355.74 49.4216 357.668 49.8829 359.59 50.3571C364.75 51.63 369.874 52.9962 374.959 54.454C377.379 55.1478 379.79 55.8623 382.193 56.5974C386.743 57.9898 391.262 59.4558 395.747 60.9941C398.742 62.0214 401.723 63.0809 404.688 64.1723C408.533 65.5879 412.353 67.0569 416.146 68.5786C419.796 70.0426 423.42 71.5552 427.019 73.1157C430.084 74.4448 433.13 75.8086 436.158 77.2067C440.52 79.2214 444.843 81.3072 449.125 83.4626C455.798 86.8212 462.37 90.3489 468.838 94.0399C470.147 94.787 470.961 96.1722 470.976 97.6793C470.992 99.1976 471 100.718 471 102.24C471 108.21 470.878 114.152 470.637 120.063L470.635 120.103C470.586 121.298 470.532 122.491 470.473 123.683C470.131 130.648 469.622 137.57 468.95 144.444L468.887 145.088C468.177 152.25 467.29 159.361 466.232 166.415C466.136 167.059 466.038 167.703 465.938 168.346C464.937 174.821 463.79 181.248 462.503 187.623V187.623C462.115 189.542 459.861 190.393 458.278 189.241C456.977 188.293 455.668 187.354 454.353 186.425C450.445 183.663 446.476 180.98 442.45 178.38C436.878 174.782 431.196 171.34 425.408 168.062C423.827 167.166 422.967 165.382 423.254 163.587C424.094 158.325 424.828 153.027 425.453 147.696C425.602 146.426 425.744 145.155 425.881 143.882C426.604 137.141 427.153 130.349 427.525 123.509C427.617 121.808 426.681 120.217 425.149 119.472C419.278 116.617 413.323 113.906 407.29 111.344L406.547 111.029C399.535 108.069 392.417 105.31 385.201 102.759C378.202 100.286 371.111 98.0082 363.934 95.9333L363.689 95.8628C356.814 93.88 349.859 92.0831 342.832 90.478L342.069 90.3046C335.341 88.7824 328.547 87.4359 321.691 86.2701C321.258 86.1964 320.824 86.1234 320.39 86.0511C315.199 85.1867 309.972 84.4258 304.713 83.7708C302.357 83.4772 300.223 85.1797 300.023 87.5459C299.612 92.3893 299.402 97.2901 299.402 102.24C299.402 103.074 299.408 103.907 299.42 104.739C299.526 112.136 300.099 119.42 301.113 126.562C302.193 134.179 303.774 141.635 305.821 148.895C307.753 155.749 310.1 162.428 312.833 168.905C313.289 169.987 313.757 171.063 314.235 172.133C317.972 180.504 322.361 188.52 327.336 196.118C327.6 196.522 327.866 196.924 328.133 197.325C332.611 204.039 337.549 210.419 342.902 216.421C346.919 220.924 351.169 225.213 355.634 229.271C356.916 230.436 358.215 231.581 359.532 232.708C365.131 237.495 371.041 241.929 377.229 245.974C381.995 249.09 386.926 251.975 392.005 254.613C394.169 255.738 396.814 254.761 397.764 252.515C397.856 252.297 397.948 252.079 398.039 251.861C400.147 246.852 402.152 241.788 404.052 236.673C404.699 234.932 405.334 233.184 405.956 231.431C407.749 226.381 409.44 221.283 411.025 216.139C411.064 216.013 411.103 215.886 411.142 215.76C411.972 213.059 415.124 211.837 417.508 213.354C422.241 216.366 426.884 219.507 431.432 222.772C432.969 223.876 434.496 224.993 436.011 226.125C439.825 228.973 443.569 231.91 447.24 234.932C448.596 236.048 449.117 237.885 448.555 239.548C447.359 243.092 446.118 246.614 444.832 250.115C443.812 252.893 442.764 255.657 441.689 258.407C440.111 262.443 438.473 266.449 436.777 270.425C435.497 273.426 434.183 276.41 432.837 279.376C431.156 283.079 429.424 286.753 427.642 290.399C426.121 293.511 424.563 296.603 422.969 299.672Z" fill="url(#paint1_linear_1061_2066)"/>
<defs>
<linearGradient id="paint0_linear_1061_2066" x1="41" y1="103.586" x2="394.527" y2="412.416" gradientUnits="userSpaceOnUse">
<stop offset="0.368671" stopColor="#02D5F0"/>
<stop offset="0.88699" stopColor="#0D71FD"/>
</linearGradient>
<linearGradient id="paint1_linear_1061_2066" x1="41" y1="103.586" x2="394.527" y2="412.416" gradientUnits="userSpaceOnUse">
<stop offset="0.368671" stopColor="#02D5F0"/>
<stop offset="0.88699" stopColor="#0D71FD"/>
</linearGradient>
</defs>
</svg>
