<svg width="2599" height="2599" viewBox="0 0 2599 2599" fill="none" xmlns="http://www.w3.org/2000/svg">
<g filter="url(#filter0_d_1069_1999)">
<rect x="591" y="570" width="1417" height="1417" rx="421.939" fill="white"/>
</g>
<path d="M926.375 917.463C926.375 927.959 926.587 938.405 927.006 948.796C927.092 950.92 927.186 953.041 927.289 955.16C927.884 967.405 928.767 979.573 929.932 991.657L930.042 992.79C931.275 1005.38 932.813 1017.88 934.649 1030.28C934.817 1031.41 934.987 1032.55 935.16 1033.68C936.898 1045.06 938.887 1056.36 941.122 1067.57C941.602 1069.97 942.094 1072.38 942.597 1074.78C944.692 1084.79 946.984 1094.71 949.466 1104.57C950.338 1108.02 951.232 1111.47 952.151 1114.91C954.51 1123.74 957.023 1132.51 959.688 1141.21C960.998 1145.49 962.346 1149.75 963.729 1154C966.292 1161.87 968.979 1169.68 971.788 1177.42C973.558 1182.31 975.376 1187.17 977.243 1192C979.981 1199.1 982.823 1206.14 985.766 1213.13C987.988 1218.4 990.268 1223.65 992.605 1228.86C995.522 1235.37 998.527 1241.83 1001.62 1248.24C1004.26 1253.71 1006.96 1259.15 1009.73 1264.54C1012.86 1270.64 1016.06 1276.69 1019.35 1282.69C1022.35 1288.17 1025.41 1293.61 1028.54 1299C1031.93 1304.85 1035.4 1310.64 1038.94 1316.38C1042.21 1321.7 1045.55 1326.97 1048.96 1332.19C1052.69 1337.93 1056.51 1343.61 1060.39 1349.24C1063.84 1354.23 1067.35 1359.18 1070.91 1364.09C1075.09 1369.85 1079.36 1375.55 1083.7 1381.18C1087.19 1385.71 1090.73 1390.2 1094.32 1394.64C1099.08 1400.54 1103.93 1406.36 1108.86 1412.1C1112.25 1416.05 1115.67 1419.95 1119.14 1423.82C1124.62 1429.95 1130.2 1435.98 1135.87 1441.92C1138.98 1445.18 1142.12 1448.4 1145.29 1451.6C1151.65 1458.03 1158.14 1464.34 1164.73 1470.54C1167.38 1473.02 1170.04 1475.49 1172.72 1477.94C1180.16 1484.72 1187.73 1491.36 1195.43 1497.84C1197.41 1499.51 1199.4 1501.16 1201.4 1502.81C1210.1 1509.98 1218.96 1516.95 1227.98 1523.72C1229.09 1524.56 1230.2 1525.39 1231.32 1526.22C1241.48 1533.76 1251.83 1541.04 1262.37 1548.06L1262.77 1548.33C1273.27 1555.31 1283.95 1562.03 1294.82 1568.48C1297.16 1569.88 1300.08 1569.88 1302.43 1568.48C1313.29 1562.03 1323.98 1555.31 1334.48 1548.33L1334.87 1548.06C1345.41 1541.04 1355.77 1533.76 1365.92 1526.22C1367.04 1525.39 1368.15 1524.56 1369.27 1523.72C1378.28 1516.95 1387.15 1509.98 1395.85 1502.81C1397.84 1501.16 1399.83 1499.51 1401.81 1497.84C1409.52 1491.36 1417.09 1484.72 1424.52 1477.94C1427.2 1475.49 1429.87 1473.02 1432.51 1470.54C1439.11 1464.34 1445.59 1458.03 1451.96 1451.6C1455.12 1448.4 1458.26 1445.18 1461.37 1441.92C1467.05 1435.98 1472.63 1429.95 1478.11 1423.82C1481.57 1419.95 1485 1416.05 1488.38 1412.1C1493.31 1406.36 1498.16 1400.54 1502.92 1394.64C1506.51 1390.2 1510.05 1385.71 1513.54 1381.18C1517.88 1375.55 1522.15 1369.85 1526.34 1364.09C1527.9 1361.93 1529.46 1359.76 1531.01 1357.59C1533.94 1353.46 1531.97 1347.69 1527.18 1346.04C1518.17 1342.94 1509.29 1339.56 1500.55 1335.9C1499.97 1335.66 1499.4 1335.42 1498.83 1335.18C1487.69 1330.47 1476.78 1325.31 1466.12 1319.73C1454.98 1313.9 1444.12 1307.62 1433.56 1300.89C1423.02 1294.19 1412.78 1287.05 1402.86 1279.5C1399.92 1277.26 1397.01 1274.99 1394.12 1272.68C1387.26 1267.19 1380.56 1261.49 1374.02 1255.6C1366.93 1249.21 1360.04 1242.58 1353.36 1235.75C1350.05 1232.36 1344.46 1232.71 1341.62 1236.51C1336.14 1243.81 1330.48 1250.97 1324.64 1257.97L1323.76 1259.02C1317.27 1266.76 1310.57 1274.3 1303.66 1281.65C1300.87 1284.61 1300.86 1289.25 1303.73 1292.13C1304.57 1292.98 1305.41 1293.82 1306.25 1294.65C1312.55 1300.9 1319 1306.99 1325.61 1312.91C1334.93 1321.26 1344.54 1329.29 1354.44 1336.96C1356.07 1338.22 1357.7 1339.47 1359.34 1340.71C1367.75 1347.07 1376.35 1353.18 1385.13 1359.02C1393.09 1364.32 1401.2 1369.4 1409.45 1374.26C1413.64 1376.72 1414.55 1382.42 1411.22 1385.95C1406.98 1390.45 1402.68 1394.89 1398.33 1399.27C1395.8 1401.81 1393.25 1404.33 1390.68 1406.83C1383.94 1413.4 1377.05 1419.83 1370.03 1426.11C1367.32 1428.54 1364.59 1430.95 1361.85 1433.33C1354.18 1439.98 1346.36 1446.46 1338.39 1452.76C1335.99 1454.66 1333.58 1456.54 1331.16 1458.4C1321.91 1465.52 1312.46 1472.39 1302.84 1479.02C1300.3 1480.78 1296.94 1480.78 1294.4 1479.02C1284.78 1472.39 1275.34 1465.52 1266.08 1458.4C1263.66 1456.54 1261.25 1454.66 1258.85 1452.76C1250.89 1446.46 1243.07 1439.98 1235.4 1433.33C1232.65 1430.95 1229.92 1428.54 1227.21 1426.11C1220.19 1419.83 1213.31 1413.4 1206.56 1406.83C1203.99 1404.33 1201.44 1401.81 1198.92 1399.27C1192.33 1392.64 1185.88 1385.89 1179.57 1378.99C1177.3 1376.52 1175.05 1374.03 1172.83 1371.52C1166.54 1364.46 1160.41 1357.26 1154.42 1349.93C1152.46 1347.53 1150.51 1345.11 1148.57 1342.67C1142.6 1335.16 1136.78 1327.51 1131.13 1319.73C1129.41 1317.38 1127.72 1315.01 1126.03 1312.63C1120.42 1304.7 1114.97 1296.65 1109.69 1288.47C1108.17 1286.12 1106.67 1283.75 1105.18 1281.38C1099.98 1273.11 1094.95 1264.72 1090.1 1256.2C1089.84 1255.75 1089.58 1255.29 1089.32 1254.83C1087.43 1251.48 1088.39 1247.24 1091.58 1245.08C1100.02 1239.35 1108.71 1233.95 1117.63 1228.91C1128.45 1222.8 1139.61 1217.22 1151.06 1212.21C1155.97 1210.06 1160.94 1208.01 1165.96 1206.07C1172.68 1203.47 1179.49 1201.07 1186.39 1198.86C1198.62 1194.95 1211.13 1191.66 1223.87 1189.02C1228.6 1188.05 1233.36 1187.16 1238.15 1186.37C1246.69 1184.96 1255.32 1183.84 1264.04 1183.03C1272.34 1182.25 1280.71 1181.75 1289.15 1181.54C1292.3 1181.46 1295.46 1181.42 1298.62 1181.42V1181.42C1302.52 1181.42 1304.88 1176.99 1302.69 1173.76C1301.32 1171.75 1299.96 1169.72 1298.62 1167.68C1293.54 1159.94 1288.69 1152.03 1284.08 1143.97C1281.72 1139.85 1279.43 1135.69 1277.2 1131.49C1273.8 1125.09 1270.55 1118.59 1267.45 1112.01C1266.11 1109.16 1263.15 1107.4 1260 1107.67C1255.69 1108.05 1251.39 1108.48 1247.1 1108.98C1240.19 1109.79 1233.31 1110.75 1226.5 1111.87C1216.49 1113.52 1206.59 1115.5 1196.82 1117.81C1194.31 1118.4 1191.81 1119.01 1189.31 1119.65C1177.15 1122.75 1165.18 1126.35 1153.43 1130.44C1144.35 1133.6 1135.4 1137.05 1126.59 1140.78C1123.96 1141.89 1121.35 1143.02 1118.75 1144.18C1107.33 1149.28 1096.16 1154.85 1085.26 1160.86C1076.9 1165.47 1068.7 1170.35 1060.68 1175.47C1056.67 1178.03 1051.29 1176.41 1049.53 1171.99C1047.12 1165.97 1044.8 1159.9 1042.56 1153.79C1041.44 1150.73 1040.33 1147.66 1039.25 1144.58C1036.14 1135.7 1033.21 1126.74 1030.46 1117.69C1029.43 1114.34 1028.44 1110.97 1027.47 1107.58C1024.87 1098.57 1022.46 1089.48 1020.23 1080.31C1019.37 1076.74 1018.53 1073.16 1017.71 1069.56C1015.57 1060.1 1013.63 1050.56 1011.89 1040.96C1011.26 1037.5 1010.66 1034.04 1010.09 1030.57C1008.27 1019.59 1006.71 1008.52 1005.42 997.374C1005.16 995.142 1004.91 992.907 1004.68 990.669C1003.42 978.809 1002.47 966.858 1001.82 954.823C1001.66 951.848 1003.29 949.066 1005.96 947.749C1016.15 942.732 1026.48 937.969 1036.94 933.468L1038.23 932.915C1050.4 927.712 1062.75 922.862 1075.27 918.378C1075.27 918.299 1075.39 918.274 1075.56 918.274C1087.61 913.965 1099.82 909.996 1112.18 906.377L1112.61 906.253C1124.54 902.767 1136.61 899.608 1148.8 896.787L1150.13 896.482C1149.86 903.442 1149.72 910.437 1149.72 917.463C1149.72 923.412 1149.82 929.337 1150.01 935.238C1150.43 948.091 1151.31 960.828 1152.62 973.432C1153.93 986.094 1155.69 998.622 1157.88 1011C1159.05 1017.65 1160.35 1024.25 1161.77 1030.81C1162.46 1034.04 1163.19 1037.26 1163.94 1040.47C1164.91 1044.56 1169.08 1047.01 1173.16 1045.99C1181.51 1043.9 1189.93 1042.01 1198.43 1040.33C1199.65 1040.09 1200.87 1039.86 1202.09 1039.63C1211.47 1037.85 1220.94 1036.32 1230.49 1035.06C1235.04 1034.46 1238.08 1030.02 1237 1025.56C1234.72 1016.14 1232.73 1006.61 1231.05 996.979C1228.9 984.684 1227.23 972.218 1226.08 959.601C1224.82 945.727 1224.17 931.672 1224.17 917.463C1224.17 906.128 1224.58 894.889 1225.39 883.762C1226.33 870.814 1227.81 858.018 1229.81 845.395C1231.32 835.845 1233.12 826.395 1235.21 817.055C1236.33 812.021 1232.29 807.273 1227.16 807.769C1219.68 808.49 1212.23 809.324 1204.82 810.268C1202.67 810.542 1200.52 810.826 1198.37 811.119C1187.85 812.553 1177.41 814.209 1167.04 816.082C1164.36 816.565 1161.7 817.061 1159.04 817.572C1149.21 819.461 1139.45 821.546 1129.76 823.823C1126.4 824.611 1123.06 825.421 1119.72 826.255C1110.76 828.493 1101.87 830.895 1093.05 833.457C1088.85 834.677 1084.66 835.933 1080.49 837.225C1072.6 839.673 1064.76 842.25 1056.97 844.955C1051.77 846.761 1046.6 848.623 1041.46 850.542C1040.32 850.966 1039.18 851.393 1038.05 851.822C1032.52 853.913 1027.03 856.069 1021.57 858.288C1015.24 860.862 1008.95 863.521 1002.7 866.264L986.842 873.456C979.271 876.998 971.768 880.665 964.337 884.454C960.376 886.474 956.435 888.528 952.515 890.617C944.979 894.632 937.52 898.775 930.14 903.041C927.859 904.36 926.444 906.785 926.416 909.419C926.389 912.097 926.375 914.779 926.375 917.463Z" fill="url(#paint0_linear_1069_1999)"/>
<path d="M1589.26 1265.34C1587.03 1269.69 1584.76 1274.01 1582.45 1278.31C1580.81 1281.36 1577.3 1282.88 1573.96 1281.95C1563.56 1279.07 1553.34 1275.73 1543.32 1271.97C1542.2 1271.55 1541.08 1271.12 1539.96 1270.69C1529.36 1266.59 1518.99 1262.02 1508.88 1257C1497.7 1251.44 1486.83 1245.33 1476.32 1238.71C1465.72 1232.03 1455.47 1224.83 1445.62 1217.14C1441.34 1213.8 1437.15 1210.38 1433.02 1206.86C1427.47 1202.12 1422.04 1197.22 1416.77 1192.16C1407.29 1183.07 1398.28 1173.48 1389.78 1163.43C1386.75 1159.85 1383.8 1156.22 1380.9 1152.53C1375.22 1145.27 1369.79 1137.8 1364.63 1130.12C1360.18 1123.49 1355.93 1116.7 1351.88 1109.78C1348.19 1103.44 1344.68 1096.99 1341.35 1090.43C1337.96 1083.77 1334.77 1076.99 1331.78 1070.11C1327.4 1060.02 1323.43 1049.7 1319.92 1039.18C1319.09 1036.69 1318.28 1034.18 1317.5 1031.66C1313.65 1019.28 1310.41 1006.62 1307.82 993.724C1305.34 981.349 1303.46 968.753 1302.21 955.97C1300.99 943.566 1300.37 930.986 1300.37 918.259C1300.37 905.533 1300.99 892.955 1302.2 880.553C1303.45 867.798 1305.33 855.23 1307.81 842.882C1310.04 831.747 1312.75 820.791 1315.92 810.037C1316.75 807.244 1319.36 805.37 1322.27 805.455V805.455C1333.56 805.785 1344.78 806.37 1355.94 807.204C1357.75 807.34 1359.56 807.482 1361.37 807.63C1372.37 808.534 1383.31 809.68 1394.17 811.063C1396.32 811.338 1398.47 811.621 1400.62 811.914C1411.14 813.348 1421.58 815.004 1431.95 816.878C1434.62 817.36 1437.29 817.857 1439.95 818.368C1449.78 820.257 1459.54 822.342 1469.23 824.618C1472.59 825.406 1475.93 826.217 1479.27 827.051C1488.22 829.288 1497.12 831.69 1505.94 834.253C1510.14 835.473 1514.32 836.729 1518.49 838.021C1526.39 840.469 1534.23 843.046 1542.02 845.75C1547.22 847.556 1552.39 849.419 1557.53 851.337C1564.21 853.826 1570.84 856.408 1577.42 859.083C1583.75 861.657 1590.04 864.316 1596.29 867.06C1601.61 869.396 1606.89 871.794 1612.15 874.251C1619.72 877.793 1627.22 881.46 1634.65 885.249C1646.23 891.151 1657.63 897.35 1668.85 903.837C1671.13 905.155 1672.55 907.58 1672.57 910.215C1672.6 912.893 1672.61 915.574 1672.61 918.259C1672.61 928.755 1672.4 939.2 1671.98 949.592L1671.98 949.663C1671.9 951.762 1671.8 953.86 1671.7 955.956C1671.1 968.2 1670.22 980.368 1669.06 992.452L1668.95 993.585C1667.71 1006.18 1666.18 1018.68 1664.34 1031.08C1664.17 1032.21 1664 1033.34 1663.83 1034.47C1662.09 1045.85 1660.1 1057.15 1657.87 1068.36V1068.36C1657.2 1071.72 1653.25 1073.2 1650.49 1071.17C1648.25 1069.52 1645.99 1067.88 1643.72 1066.25C1636.94 1061.4 1630.05 1056.68 1623.07 1052.11C1613.4 1045.79 1603.54 1039.74 1593.5 1033.98C1590.75 1032.4 1589.25 1029.28 1589.75 1026.15C1591.21 1016.88 1592.48 1007.56 1593.57 998.17C1593.83 995.938 1594.08 993.703 1594.31 991.464C1595.57 979.604 1596.52 967.653 1597.17 955.618C1597.33 952.643 1595.7 949.861 1593.02 948.544C1582.84 943.528 1572.51 938.765 1562.05 934.264L1560.76 933.711C1548.59 928.507 1536.24 923.656 1523.71 919.172C1511.57 914.824 1499.26 910.82 1486.81 907.172L1486.38 907.048C1474.45 903.563 1462.38 900.404 1450.19 897.582L1448.86 897.277C1437.19 894.601 1425.4 892.234 1413.5 890.185C1412.74 890.055 1411.99 889.927 1411.24 889.8C1402.27 888.286 1393.24 886.954 1384.15 885.806C1380 885.281 1376.24 888.281 1375.89 892.45C1375.18 900.957 1374.82 909.565 1374.82 918.259C1374.82 919.726 1374.83 921.19 1374.85 922.652C1375.03 935.656 1376.03 948.461 1377.78 961.017C1379.66 974.407 1382.4 987.514 1385.96 1000.28C1389.31 1012.33 1393.38 1024.07 1398.12 1035.45C1398.92 1037.36 1399.73 1039.25 1400.56 1041.13C1407.04 1055.84 1414.66 1069.94 1423.29 1083.29C1423.75 1084 1424.21 1084.71 1424.68 1085.42C1432.45 1097.22 1441.02 1108.44 1450.31 1118.99C1457.28 1126.9 1464.65 1134.44 1472.4 1141.58C1474.63 1143.62 1476.88 1145.64 1479.17 1147.62C1488.88 1156.03 1499.14 1163.83 1509.88 1170.94C1518.11 1176.39 1526.62 1181.44 1535.38 1186.05C1539.2 1188.07 1543.89 1186.34 1545.55 1182.35C1545.7 1182 1545.85 1181.64 1545.99 1181.29C1549.65 1172.48 1553.13 1163.58 1556.43 1154.59C1557.55 1151.53 1558.65 1148.46 1559.73 1145.37C1562.85 1136.5 1565.78 1127.53 1568.53 1118.49C1568.59 1118.3 1568.65 1118.11 1568.7 1117.92C1570.15 1113.14 1575.74 1110.99 1579.94 1113.7C1588.1 1118.96 1596.1 1124.45 1603.95 1130.15C1606.61 1132.09 1609.26 1134.06 1611.89 1136.05C1618.52 1141.06 1625.02 1146.22 1631.39 1151.54C1633.74 1153.5 1634.64 1156.7 1633.68 1159.6C1631.6 1165.84 1629.44 1172.05 1627.2 1178.22C1625.43 1183.1 1623.61 1187.96 1621.75 1192.8C1619.01 1199.89 1616.17 1206.93 1613.22 1213.92C1611 1219.2 1608.72 1224.45 1606.38 1229.66C1603.47 1236.17 1600.46 1242.63 1597.37 1249.04C1594.73 1254.51 1592.02 1259.94 1589.26 1265.34Z" fill="url(#paint1_linear_1069_1999)"/>
<path d="M971.866 1726.84H1037.95V1751.55H971.866V1726.84ZM974.219 1783.31H1048.93V1808.8H942.65V1671.54H1046.38V1697.04H974.219V1783.31ZM1139.89 1811.15C1129.3 1811.15 1119.43 1809.46 1110.28 1806.06C1101.26 1802.53 1093.42 1797.56 1086.75 1791.15C1080.08 1784.75 1074.85 1777.23 1071.06 1768.61C1067.4 1759.98 1065.57 1750.5 1065.57 1740.17C1065.57 1729.85 1067.4 1720.37 1071.06 1711.74C1074.85 1703.11 1080.08 1695.6 1086.75 1689.19C1093.55 1682.79 1101.46 1677.88 1110.48 1674.49C1119.5 1670.96 1129.36 1669.19 1140.08 1669.19C1151.98 1669.19 1162.7 1671.28 1172.24 1675.47C1181.91 1679.52 1190.02 1685.53 1196.56 1693.51L1176.16 1712.33C1171.46 1706.97 1166.23 1702.98 1160.48 1700.37C1154.72 1697.62 1148.45 1696.25 1141.65 1696.25C1135.25 1696.25 1129.36 1697.3 1124.01 1699.39C1118.65 1701.48 1114.01 1704.49 1110.08 1708.41C1106.16 1712.33 1103.09 1716.97 1100.87 1722.33C1098.78 1727.69 1097.73 1733.64 1097.73 1740.17C1097.73 1746.71 1098.78 1752.66 1100.87 1758.02C1103.09 1763.38 1106.16 1768.02 1110.08 1771.94C1114.01 1775.86 1118.65 1778.87 1124.01 1780.96C1129.36 1783.05 1135.25 1784.1 1141.65 1784.1C1148.45 1784.1 1154.72 1782.79 1160.48 1780.17C1166.23 1777.43 1171.46 1773.31 1176.16 1767.82L1196.56 1786.64C1190.02 1794.62 1181.91 1800.7 1172.24 1804.88C1162.7 1809.06 1151.91 1811.15 1139.89 1811.15ZM1218.01 1808.8V1671.54H1277.42C1289.71 1671.54 1300.3 1673.57 1309.18 1677.62C1318.07 1681.54 1324.94 1687.23 1329.77 1694.68C1334.61 1702.13 1337.03 1711.02 1337.03 1721.35C1337.03 1731.55 1334.61 1740.37 1329.77 1747.82C1324.94 1755.14 1318.07 1760.76 1309.18 1764.68C1300.3 1768.61 1289.71 1770.57 1277.42 1770.57H1235.65L1249.77 1756.64V1808.8H1218.01ZM1305.26 1808.8L1270.95 1759H1304.87L1339.58 1808.8H1305.26ZM1249.77 1760.17L1235.65 1745.27H1275.65C1285.46 1745.27 1292.78 1743.18 1297.62 1739C1302.45 1734.68 1304.87 1728.8 1304.87 1721.35C1304.87 1713.77 1302.45 1707.89 1297.62 1703.7C1292.78 1699.52 1285.46 1697.43 1275.65 1697.43H1235.65L1249.77 1682.33V1760.17ZM1394.4 1808.8V1752.72L1401.65 1771.94L1341.26 1671.54H1374.99L1421.26 1748.6H1401.85L1448.32 1671.54H1479.5L1419.1 1771.94L1426.16 1752.72V1808.8H1394.4ZM1491.64 1808.8V1671.54H1551.05C1563.34 1671.54 1573.93 1673.57 1582.82 1677.62C1591.71 1681.54 1598.57 1687.23 1603.41 1694.68C1608.24 1702.13 1610.66 1711.02 1610.66 1721.35C1610.66 1731.55 1608.24 1740.37 1603.41 1747.82C1598.57 1755.27 1591.71 1761.02 1582.82 1765.08C1573.93 1769 1563.34 1770.96 1551.05 1770.96H1509.29L1523.4 1756.64V1808.8H1491.64ZM1523.4 1760.17L1509.29 1745.08H1549.29C1559.09 1745.08 1566.41 1742.98 1571.25 1738.8C1576.09 1734.62 1578.5 1728.8 1578.5 1721.35C1578.5 1713.77 1576.09 1707.89 1571.25 1703.7C1566.41 1699.52 1559.09 1697.43 1549.29 1697.43H1509.29L1523.4 1682.33V1760.17ZM1658.13 1808.8V1697.43H1614.21V1671.54H1733.82V1697.43H1689.9V1808.8H1658.13Z" fill="black"/>
<defs>
<filter id="filter0_d_1069_1999" x="0.285248" y="0.382204" width="2598.43" height="2598.43" filterUnits="userSpaceOnUse" colorInterpolationFilters="sRGB">
<feFlood floodOpacity="0" result="BackgroundImageFix"/>
<feColorMatrix in="SourceAlpha" type="matrix" values="0 0 0 0 0 0 0 0 0 0 0 0 0 0 0 0 0 0 127 0" result="hardAlpha"/>
<feMorphology radius="63.2909" operator="dilate" in="SourceAlpha" result="effect1_dropShadow_1069_1999"/>
<feOffset dy="21.097"/>
<feGaussianBlur stdDeviation="263.712"/>
<feComposite in2="hardAlpha" operator="out"/>
<feColorMatrix type="matrix" values="0 0 0 0 0 0 0 0 0 0 0 0 0 0 0 0 0 0 0.06 0"/>
<feBlend mode="normal" in2="BackgroundImageFix" result="effect1_dropShadow_1069_1999"/>
<feBlend mode="normal" in="SourceGraphic" in2="effect1_dropShadow_1069_1999" result="shape"/>
</filter>
<linearGradient id="paint0_linear_1069_1999" x1="926.375" y1="920.626" x2="1546.74" y2="1455.61" gradientUnits="userSpaceOnUse">
<stop offset="0.368671" stopColor="#02D5F0"/>
<stop offset="0.88699" stopColor="#0D71FD"/>
</linearGradient>
<linearGradient id="paint1_linear_1069_1999" x1="926.375" y1="920.626" x2="1546.74" y2="1455.61" gradientUnits="userSpaceOnUse">
<stop offset="0.368671" stopColor="#02D5F0"/>
<stop offset="0.88699" stopColor="#0D71FD"/>
</linearGradient>
</defs>
</svg>
