<svg width="180" height="180" viewBox="0 0 180 180" fill="none" xmlns="http://www.w3.org/2000/svg">
<path d="M37.3779 37.1232C37.3779 38.5845 37.4078 40.0388 37.4669 41.4856C37.479 41.7813 37.4923 42.0766 37.5068 42.3717C37.5907 44.0764 37.7153 45.7705 37.8796 47.453L37.8951 47.6107C38.069 49.3637 38.2859 51.1041 38.5449 52.8306C38.5686 52.9883 38.5926 53.1458 38.6169 53.3033C38.862 54.888 39.1426 56.461 39.4577 58.0215C39.5255 58.3571 39.5948 58.692 39.6658 59.0264C39.9613 60.419 40.2845 61.8015 40.6346 63.1732C40.7575 63.6545 40.8837 64.1346 41.0132 64.6132C41.3459 65.843 41.7004 67.0638 42.0762 68.2752C42.2611 68.871 42.4511 69.4645 42.6462 70.0557C43.0076 71.1509 43.3866 72.2381 43.7828 73.317C44.0324 73.9968 44.2889 74.6733 44.5521 75.3464C44.9383 76.3343 45.3391 77.3149 45.7542 78.2879C46.0676 79.0225 46.3891 79.7529 46.7186 80.4788C47.13 81.3851 47.5539 82.2845 47.9901 83.1768C48.3625 83.9386 48.7439 84.6952 49.134 85.4465C49.5748 86.2954 50.0269 87.1374 50.49 87.9725C50.9131 88.7355 51.3455 89.4926 51.7869 90.2438C52.2651 91.0575 52.7539 91.8643 53.2532 92.6638C53.7154 93.4038 54.1865 94.1377 54.6664 94.8652C55.1934 95.6641 55.731 96.4553 56.279 97.2387C56.7652 97.9339 57.2597 98.6229 57.7622 99.3055C58.3526 100.108 58.9541 100.901 59.5666 101.685C60.0589 102.316 60.5582 102.941 61.0645 103.56C61.736 104.381 62.4197 105.191 63.1153 105.991C63.5927 106.54 64.0756 107.084 64.5641 107.623C65.3373 108.476 66.1243 109.316 66.9247 110.143C67.3632 110.596 67.8057 111.045 68.2522 111.49C69.1503 112.385 70.0646 113.264 70.9945 114.126C71.3676 114.472 71.7432 114.816 72.1213 115.156C73.1701 116.101 74.238 117.025 75.3244 117.928C75.6036 118.16 75.884 118.39 76.1656 118.619C77.3926 119.618 78.6426 120.588 79.9147 121.531C80.0714 121.648 80.2284 121.763 80.3858 121.879C81.8186 122.928 83.279 123.943 84.7656 124.92L84.8212 124.957C86.3061 125.932 87.8171 126.87 89.3531 127.77C89.6772 127.96 90.0787 127.96 90.4028 127.77C91.9388 126.87 93.4498 125.932 94.9346 124.957L94.9902 124.92C96.4769 123.943 97.9373 122.928 99.37 121.879C99.5274 121.763 99.6845 121.648 99.8412 121.531C101.113 120.588 102.363 119.618 103.59 118.619C103.872 118.39 104.152 118.16 104.431 117.928C105.518 117.025 106.586 116.101 107.635 115.156C108.013 114.816 108.388 114.472 108.761 114.126C109.691 113.264 110.606 112.385 111.504 111.49C111.95 111.045 112.393 110.596 112.831 110.143C113.632 109.316 114.419 108.476 115.192 107.623C115.68 107.084 116.163 106.54 116.641 105.991C117.336 105.191 118.02 104.381 118.691 103.56C119.198 102.941 119.697 102.316 120.189 101.685C120.802 100.901 121.403 100.108 121.994 99.3055C122.213 99.0073 122.431 98.7079 122.648 98.4073C123.062 97.8313 122.787 97.0218 122.115 96.7937C120.843 96.362 119.59 95.8908 118.356 95.3816C118.276 95.3484 118.195 95.3149 118.115 95.2814C116.543 94.625 115.004 93.9069 113.501 93.13C111.93 92.3187 110.399 91.4433 108.909 90.5073C107.423 89.5738 105.979 88.5799 104.58 87.5291C104.165 87.2176 103.754 86.901 103.347 86.5795C102.379 85.8143 101.433 85.0212 100.512 84.2014C99.5057 83.3056 98.528 82.378 97.5808 81.4202C97.1206 80.9548 96.351 81.004 95.9552 81.5253C95.1783 82.5486 94.3752 83.5509 93.547 84.5313L93.4227 84.678C92.5094 85.7533 91.5657 86.8019 90.5929 87.8226C90.1986 88.2364 90.1975 88.8897 90.6032 89.2924C90.7199 89.4082 90.8369 89.5236 90.9544 89.6387C91.8425 90.5084 92.7525 91.3558 93.6836 92.1799C94.9981 93.3433 96.3545 94.4604 97.7503 95.5286C97.9797 95.7041 98.2102 95.8784 98.4418 96.0513C99.6269 96.9364 100.84 97.7865 102.079 98.6003C103.2 99.337 104.343 100.044 105.506 100.72C106.095 101.062 106.222 101.863 105.752 102.355C105.157 102.98 104.552 103.596 103.94 104.203C103.583 104.557 103.224 104.908 102.862 105.256C101.91 106.171 100.939 107.067 99.9497 107.942C99.5674 108.28 99.1824 108.614 98.7947 108.946C97.7129 109.872 96.61 110.774 95.4867 111.651C95.1486 111.915 94.8086 112.177 94.4668 112.436C93.1577 113.43 91.8218 114.391 90.4605 115.317C90.1089 115.556 89.647 115.556 89.2953 115.317C87.934 114.391 86.5982 113.43 85.2891 112.436C84.9473 112.177 84.6073 111.915 84.2691 111.651C83.1459 110.774 82.0429 109.872 80.9612 108.946C80.5734 108.614 80.1884 108.28 79.8062 107.942C78.8167 107.067 77.8457 106.171 76.8938 105.256C76.5317 104.908 76.1725 104.557 75.816 104.203C74.887 103.282 73.9771 102.341 73.0869 101.381C72.7674 101.037 72.4505 100.69 72.1362 100.341C71.2504 99.3575 70.385 98.3553 69.5406 97.335C69.2633 97 68.9884 96.663 68.7157 96.3242C67.8734 95.2775 67.0531 94.2126 66.2552 93.13C66.0137 92.8022 65.7742 92.4728 65.5368 92.1418C64.7448 91.0378 63.9761 89.916 63.2313 88.7771C63.0173 88.4498 62.8053 88.1212 62.5952 87.7911C61.8622 86.6392 61.1534 85.4704 60.4696 84.2853C60.4341 84.2238 60.3987 84.1623 60.3633 84.1007C60.0943 83.6322 60.2307 83.0361 60.6795 82.7352C61.8699 81.9371 63.0948 81.1864 64.3514 80.4859C65.8779 79.6349 67.4512 78.8579 69.0665 78.1597C69.7595 77.8602 70.4604 77.5751 71.1685 77.3049C72.1161 76.9434 73.0768 76.6086 74.0497 76.3013C75.7748 75.7565 77.5384 75.2984 79.3353 74.9321C80.0022 74.7961 80.6737 74.6728 81.3495 74.5624C82.5533 74.3658 83.7709 74.2101 85.0008 74.0968C86.1706 73.989 87.3516 73.9196 88.5424 73.8899C88.9863 73.8788 89.4314 73.8732 89.8779 73.8732V73.8732C90.4262 73.8732 90.7554 73.2494 90.4446 72.7977C90.2535 72.5201 90.0646 72.2409 89.8779 71.9601C89.1615 70.8825 88.4774 69.7817 87.8269 68.659C87.4946 68.0854 87.1711 67.5061 86.8566 66.9212C86.3763 66.0284 85.917 65.1226 85.4793 64.2045C85.2911 63.8097 84.8813 63.567 84.4455 63.6042C83.8318 63.6566 83.2206 63.7178 82.6121 63.7877C81.6363 63.8997 80.6673 64.0341 79.7056 64.1902C78.2942 64.4193 76.8984 64.6954 75.5201 65.0166C75.166 65.0992 74.8131 65.1847 74.4614 65.2731C72.7457 65.7047 71.0579 66.2066 69.4014 66.7756C68.12 67.2158 66.8573 67.6961 65.6148 68.2151C65.2448 68.3696 64.8766 68.5276 64.5101 68.689C62.899 69.3985 61.3233 70.1736 59.7863 71.0108C58.5999 71.657 57.4367 72.3401 56.2981 73.0588C55.7423 73.4096 54.9998 73.1847 54.7531 72.5756C54.4115 71.732 54.0817 70.8824 53.7639 70.027C53.6056 69.6007 53.4502 69.173 53.2979 68.7438C52.8591 67.5078 52.4454 66.26 52.0572 65.001C51.913 64.5333 51.7724 64.0641 51.6353 63.5934C51.2698 62.3382 50.9296 61.0722 50.6153 59.796C50.4929 59.2988 50.3744 58.8 50.2598 58.2998C49.9582 56.9824 49.6842 55.6546 49.4383 54.3169C49.3499 53.8361 49.2652 53.3541 49.1841 52.8708C48.9277 51.3424 48.708 49.8015 48.526 48.249C48.4895 47.9383 48.4546 47.6271 48.4212 47.3154C48.2442 45.6656 48.1098 44.0031 48.0189 42.329C47.9963 41.9126 48.2253 41.5234 48.6003 41.341C50.0374 40.6421 51.4948 39.9786 52.9715 39.3515L53.1533 39.2745C54.8695 38.5501 56.6115 37.8748 58.3776 37.2506C58.3776 37.2396 58.3942 37.236 58.4187 37.2361C60.1185 36.6362 61.8405 36.0835 63.5833 35.5797L63.6431 35.5624C65.326 35.0771 67.0281 34.6373 68.7481 34.2444L68.9349 34.202C68.897 35.171 68.8779 36.1449 68.8779 37.1232C68.8779 37.9514 68.8916 38.7764 68.9188 39.598C68.978 41.3875 69.1012 43.1607 69.2861 44.9156C69.4719 46.6785 69.72 48.4227 70.0281 50.1462C70.1936 51.0719 70.3765 51.9916 70.5763 52.9049C70.6752 53.3567 70.7782 53.807 70.8853 54.2557C71.0207 54.823 71.5982 55.1619 72.1644 55.0218C73.3477 54.729 74.5424 54.4649 75.7476 54.2302C75.9195 54.1967 76.0918 54.1638 76.2642 54.1315C77.5903 53.8832 78.929 53.6704 80.2792 53.4943C80.9148 53.4114 81.3382 52.791 81.1857 52.1684C80.8649 50.8592 80.585 49.534 80.3475 48.1941C80.044 46.4822 79.8097 44.7465 79.6475 42.9899C79.4691 41.0583 79.3779 39.1014 79.3779 37.1232C79.3779 35.545 79.436 33.9802 79.55 32.4311C79.6827 30.6284 79.8913 28.8467 80.1726 27.0893C80.3853 25.7604 80.6395 24.4454 80.934 23.1456C81.0928 22.4443 80.5308 21.7811 79.815 21.8492C78.7549 21.95 77.6995 22.0665 76.6489 22.1986C76.345 22.2368 76.0415 22.2763 75.7384 22.3171C74.2554 22.5167 72.7822 22.7473 71.3195 23.0081C70.943 23.0753 70.5671 23.1445 70.1919 23.2156C68.8053 23.4786 67.4284 23.7689 66.0618 24.0858C65.5888 24.1955 65.117 24.3084 64.6464 24.4245C63.3834 24.736 62.1293 25.0705 60.8848 25.4273C60.2924 25.5971 59.7023 25.772 59.1143 25.9519C58.0004 26.2927 56.8945 26.6515 55.7967 27.028C55.0636 27.2794 54.3341 27.5388 53.6084 27.8059C53.4481 27.8649 53.2879 27.9243 53.1279 27.9841C52.3488 28.2753 51.574 28.5754 50.8038 28.8844C49.9107 29.2427 49.0236 29.6129 48.1427 29.9949L45.9059 30.9962C44.8381 31.4893 43.78 31.9998 42.7319 32.5274C42.1733 32.8086 41.6175 33.0946 41.0646 33.3854C40.0012 33.9448 38.9486 34.5219 37.9072 35.1163C37.5868 35.2991 37.3876 35.6382 37.3837 36.007C37.3799 36.3786 37.3779 36.7507 37.3779 37.1232Z" fill="url(#paint0_linear_1040_2547)"/>
<path d="M130.868 85.5572C130.552 86.1657 130.23 86.7706 129.903 87.372C129.674 87.7918 129.188 88.0013 128.727 87.8751C127.255 87.4718 125.808 87.0061 124.39 86.4808C124.231 86.422 124.073 86.3625 123.915 86.3022C122.42 85.732 120.958 85.0954 119.532 84.3961C117.955 83.6224 116.423 82.772 114.939 81.8497C113.444 80.9199 111.999 79.9171 110.609 78.8462C110.007 78.382 109.415 77.905 108.833 77.4157C108.049 76.7556 107.285 76.0731 106.541 75.369C105.204 74.103 103.933 72.7674 102.734 71.368C102.308 70.8702 101.89 70.3643 101.483 69.8506C100.681 68.8405 99.9151 67.8 99.188 66.7314C98.5595 65.8077 97.9597 64.863 97.3899 63.8984C96.869 63.0167 96.3732 62.1185 95.9034 61.2047C95.4267 60.2773 94.9767 59.3339 94.5546 58.3755C93.9361 56.9713 93.3774 55.5349 92.8815 54.0695C92.7641 53.7222 92.6501 53.3734 92.5397 53.0229C91.9968 51.2989 91.5404 49.5365 91.1756 47.7408C90.8256 46.0178 90.56 44.2642 90.3833 42.4844C90.2118 40.7575 90.124 39.006 90.124 37.234C90.124 35.4622 90.2118 33.711 90.3832 31.9843C90.5595 30.2085 90.8243 28.4587 91.1731 26.7394C91.4871 25.1919 91.8691 23.6691 92.3159 22.1742C92.4336 21.7805 92.8019 21.5167 93.2128 21.5285V21.5285C94.8049 21.5745 96.3882 21.656 97.9619 21.7721C98.2174 21.7909 98.4726 21.8107 98.7276 21.8314C100.279 21.9572 101.821 22.1168 103.353 22.3093C103.657 22.3476 103.961 22.3871 104.264 22.4279C105.747 22.6275 107.22 22.858 108.682 23.1189C109.059 23.1861 109.435 23.2552 109.81 23.3264C111.197 23.5894 112.574 23.8796 113.94 24.1966C114.413 24.3063 114.885 24.4192 115.356 24.5352C116.619 24.8468 117.873 25.1812 119.117 25.538C119.71 25.7078 120.3 25.8827 120.888 26.0626C122.002 26.4034 123.107 26.7622 124.205 27.1387C124.938 27.3902 125.668 27.6495 126.394 27.9166C127.335 28.2631 128.27 28.6227 129.198 28.9951C130.091 29.3534 130.978 29.7236 131.859 30.1056C132.609 30.4309 133.355 30.7647 134.096 31.1069C135.164 31.6 136.222 32.1105 137.27 32.6381C138.903 33.4601 140.512 34.3236 142.095 35.227C142.415 35.4098 142.614 35.7489 142.618 36.1177C142.622 36.4894 142.624 36.8614 142.624 37.234C142.624 38.6953 142.594 40.1496 142.535 41.5964L142.535 41.6062C142.523 41.8986 142.51 42.1907 142.495 42.4824C142.411 44.1872 142.287 45.8813 142.122 47.5637L142.107 47.7214C141.933 49.4745 141.716 51.2148 141.457 52.9414C141.433 53.099 141.409 53.2566 141.385 53.414C141.14 54.9987 140.859 56.5718 140.544 58.1323V58.1323C140.449 58.602 139.898 58.8102 139.51 58.5281C139.192 58.2962 138.871 58.0665 138.549 57.8389C137.593 57.1629 136.622 56.5064 135.636 55.8699C134.272 54.9892 132.882 54.1468 131.465 53.3445C131.078 53.1252 130.868 52.6885 130.938 52.2493C131.143 50.9613 131.323 49.6646 131.476 48.3598C131.512 48.049 131.547 47.7378 131.581 47.4262C131.758 45.7763 131.892 44.1138 131.983 42.4397C132.006 42.0233 131.777 41.6342 131.402 41.4518C129.965 40.7529 128.507 40.0893 127.03 39.4623L126.849 39.3853C125.132 38.6607 123.39 37.9854 121.624 37.3612C119.911 36.7557 118.175 36.1983 116.419 35.6904L116.359 35.6731C114.676 35.1878 112.974 34.748 111.254 34.3552L111.067 34.3127C109.42 33.9402 107.757 33.6106 106.079 33.3253C105.973 33.3072 105.867 33.2893 105.761 33.2717C104.49 33.0601 103.211 32.8739 101.924 32.7135C101.347 32.6417 100.825 33.0584 100.776 33.6375C100.675 34.823 100.624 36.0225 100.624 37.234C100.624 37.4382 100.625 37.6421 100.628 37.8456C100.654 39.6561 100.795 41.4389 101.043 43.1871C101.307 45.0514 101.694 46.8762 102.195 48.6533C102.668 50.3307 103.242 51.9656 103.911 53.5507C104.023 53.8155 104.137 54.079 104.254 54.341C105.169 56.3898 106.243 58.3519 107.461 60.2115C107.526 60.3102 107.591 60.4087 107.656 60.5068C108.752 62.1501 109.961 63.7118 111.271 65.1808C112.254 66.2829 113.294 67.3328 114.387 68.3258C114.701 68.611 115.019 68.8914 115.341 69.1671C116.712 70.3389 118.158 71.4241 119.673 72.4142C120.839 73.1767 122.046 73.8829 123.289 74.5287C123.819 74.8038 124.466 74.5648 124.699 74.0151C124.721 73.9618 124.744 73.9085 124.766 73.8551C125.282 72.6289 125.773 71.3896 126.238 70.1377C126.396 69.7114 126.552 69.2837 126.704 68.8546C127.143 67.6186 127.557 66.3708 127.945 65.1117C127.954 65.0808 127.964 65.0499 127.973 65.019C128.176 64.3578 128.948 64.0588 129.531 64.4301C130.69 65.1674 131.826 65.9361 132.939 66.7352C133.316 67.0053 133.689 67.2789 134.06 67.5559C134.994 68.253 135.91 68.9718 136.809 69.7116C137.14 69.9847 137.268 70.4343 137.13 70.8414C136.838 71.7087 136.534 72.5708 136.219 73.4278C135.97 74.1076 135.713 74.7841 135.45 75.4572C135.064 76.4451 134.663 77.4256 134.248 78.3986C133.934 79.1333 133.613 79.8636 133.283 80.5895C132.872 81.4958 132.448 82.3952 132.012 83.2875C131.639 84.0493 131.258 84.8059 130.868 85.5572Z" fill="url(#paint1_linear_1040_2547)"/>
<path d="M43.2201 149.602H52.7205V152.523H43.2201V149.602ZM43.4931 157.792H54.2766V160.768H39.9441V141.658H53.8944V144.633H43.4931V157.792ZM67.0782 161.041C65.6222 161.041 64.2663 160.804 63.0105 160.331C61.7729 159.839 60.69 159.157 59.7618 158.283C58.8518 157.391 58.142 156.345 57.6324 155.144C57.1228 153.943 56.868 152.632 56.868 151.213C56.868 149.793 57.1228 148.483 57.6324 147.281C58.142 146.08 58.8609 145.043 59.7891 144.169C60.7173 143.277 61.8002 142.595 63.0378 142.122C64.2754 141.63 65.6313 141.385 67.1055 141.385C68.6707 141.385 70.0994 141.658 71.3916 142.204C72.6838 142.731 73.7758 143.523 74.6676 144.579L72.3744 146.735C71.6828 145.989 70.9093 145.434 70.0539 145.07C69.1985 144.688 68.2703 144.497 67.2693 144.497C66.2683 144.497 65.3492 144.661 64.512 144.988C63.693 145.316 62.9741 145.78 62.3553 146.38C61.7547 146.981 61.2815 147.691 60.9357 148.51C60.6081 149.329 60.4443 150.23 60.4443 151.213C60.4443 152.195 60.6081 153.096 60.9357 153.915C61.2815 154.734 61.7547 155.444 62.3553 156.045C62.9741 156.645 63.693 157.109 64.512 157.437C65.3492 157.765 66.2683 157.928 67.2693 157.928C68.2703 157.928 69.1985 157.746 70.0539 157.382C70.9093 157 71.6828 156.427 72.3744 155.662L74.6676 157.846C73.7758 158.884 72.6838 159.676 71.3916 160.222C70.0994 160.768 68.6616 161.041 67.0782 161.041ZM78.0681 160.768V141.658H85.9305C87.6231 141.658 89.07 141.931 90.2712 142.477C91.4906 143.023 92.4279 143.805 93.0831 144.824C93.7383 145.844 94.0659 147.054 94.0659 148.455C94.0659 149.857 93.7383 151.067 93.0831 152.086C92.4279 153.087 91.4906 153.861 90.2712 154.407C89.07 154.934 87.6231 155.198 85.9305 155.198H80.0337L81.6171 153.588V160.768H78.0681ZM90.5715 160.768L85.7394 153.833H89.5341L94.3935 160.768H90.5715ZM81.6171 153.97L80.0337 152.277H85.7667C87.3319 152.277 88.5058 151.941 89.2884 151.267C90.0892 150.594 90.4896 149.656 90.4896 148.455C90.4896 147.236 90.0892 146.299 89.2884 145.643C88.5058 144.988 87.3319 144.661 85.7667 144.661H80.0337L81.6171 142.913V153.97ZM102.466 160.768V153.205L103.257 155.389L94.9581 141.658H98.7528L105.414 152.714H103.285L110 141.658H113.495L105.196 155.389L106.015 153.205V160.768H102.466ZM115.579 160.768V141.658H123.441C125.134 141.658 126.581 141.931 127.782 142.477C129.001 143.023 129.939 143.805 130.594 144.824C131.249 145.844 131.577 147.054 131.577 148.455C131.577 149.857 131.249 151.067 130.594 152.086C129.939 153.105 129.001 153.888 127.782 154.434C126.581 154.98 125.134 155.253 123.441 155.253H117.545L119.128 153.588V160.768H115.579ZM119.128 153.97L117.545 152.25H123.278C124.843 152.25 126.017 151.922 126.799 151.267C127.6 150.594 128 149.656 128 148.455C128 147.236 127.6 146.299 126.799 145.643C126.017 144.988 124.843 144.661 123.278 144.661H117.545L119.128 142.913V153.97ZM138.438 160.768V144.661H132.104V141.658H148.32V144.661H141.987V160.768H138.438Z" fill="white"/>
<defs>
<linearGradient id="paint0_linear_1040_2547" x1="37.3779" y1="37.5635" x2="123.907" y2="113.152" gradientUnits="userSpaceOnUse">
<stop offset="0.368671" stop-color="#02D5F0"/>
<stop offset="0.88699" stop-color="#0D71FD"/>
</linearGradient>
<linearGradient id="paint1_linear_1040_2547" x1="37.3779" y1="37.5635" x2="123.907" y2="113.152" gradientUnits="userSpaceOnUse">
<stop offset="0.368671" stop-color="#02D5F0"/>
<stop offset="0.88699" stop-color="#0D71FD"/>
</linearGradient>
</defs>
</svg>
